<?xml version="1.0" standalone="yes"?>
<svg version="1.1" viewBox="0.0 0.0 960.0 540.0" fill="none" stroke="none" stroke-linecap="square" stroke-miterlimit="10" xmlns="http://www.w3.org/2000/svg" xmlns:xlink="http://www.w3.org/1999/xlink"><clipPath id="g29f42602d7_0_0.0"><path d="m0 0l960.0 0l0 540.0l-960.0 0l0 -540.0z" clip-rule="nonzero"></path></clipPath><g clip-path="url(#g29f42602d7_0_0.0)"><path fill="#ffffff" d="m0 0l960.0 0l0 540.0l-960.0 0z" fill-rule="evenodd"></path><path fill="#f4b400" d="m283.13385 374.93964l374.84888 0c5.1000977 0 9.991272 -2.026001 13.597595 -5.6322937c3.6062622 -3.6063232 5.632263 -8.497498 5.632263 -13.597595l0 -89.022095c0 -0.0018005371 -0.0014648438 -0.0032653809 -0.0032958984 -0.0032653809l-374.84555 0.0032653809c-10.620361 0 -19.229889 8.609528 -19.229889 19.229889l0 89.022095l0 0c0 0.0018005371 0.0014648438 0.0032653809 0.0032958984 0.0032653809z" fill-rule="evenodd"></path><path fill="#f7cb4d" d="m283.23145 119.97727l100.78491 0l0 0c5.773987 0 11.311462 2.2937012 15.394287 6.3765182c4.0828247 4.0828094 6.376526 9.6203 6.376526 15.394287l0 124.06604c0 5.79834E-4 -4.5776367E-4 0.0010375977 -0.0010375977 0.0010375977l-100.783905 -0.0010375977c-12.023682 0 -21.770782 -9.747131 -21.770782 -21.770798l0 -124.06605l0 0c0 -5.645752E-4 4.5776367E-4 -0.0010223389 0.0010070801 -0.0010223389z" fill-rule="evenodd"></path><path fill="#000000" fill-opacity="0.0" d="m283.23227 142.50876l122.38559 0l0 42.73088l-122.38559 0z" fill-rule="evenodd"></path><path fill="#383838" d="m318.9614 165.58876l0 -10.671875l2.75 0q1.0625 0 1.921875 0.375q0.859375 0.359375 1.46875 1.015625q0.625 0.640625 0.953125 1.546875q0.328125 0.890625 0.328125 1.96875l0 0.875q0 1.078125 -0.328125 1.984375q-0.328125 0.890625 -0.9375 1.546875q-0.59375 0.640625 -1.4375 1.0q-0.84375 0.359375 -1.859375 0.359375l-2.859375 0zm2.0625 -9.0l0 7.34375l0.796875 0q0.578125 0 1.03125 -0.21875q0.46875 -0.21875 0.78125 -0.640625q0.3125 -0.421875 0.484375 -1.015625q0.171875 -0.59375 0.171875 -1.359375l0 -0.890625q0 -0.71875 -0.171875 -1.296875q-0.15625 -0.59375 -0.484375 -1.015625q-0.328125 -0.4375 -0.8125 -0.671875q-0.46875 -0.234375 -1.109375 -0.234375l-0.6875 0zm6.5608215 4.96875q0 -0.875 0.25 -1.609375q0.25 -0.734375 0.734375 -1.265625q0.484375 -0.546875 1.171875 -0.859375q0.6875 -0.3125 1.578125 -0.3125q0.90625 0 1.59375 0.3125q0.703125 0.3125 1.171875 0.859375q0.484375 0.53125 0.734375 1.265625q0.25 0.734375 0.25 1.609375l0 0.15625q0 0.859375 -0.25 1.609375q-0.25 0.734375 -0.734375 1.28125q-0.46875 0.53125 -1.171875 0.84375q-0.6875 0.296875 -1.578125 0.296875q-0.890625 0 -1.59375 -0.296875q-0.6875 -0.3125 -1.171875 -0.84375q-0.484375 -0.546875 -0.734375 -1.28125q-0.25 -0.75 -0.25 -1.609375l0 -0.15625zm2.046875 0.15625q0 0.484375 0.09375 0.921875q0.09375 0.4375 0.296875 0.765625q0.203125 0.328125 0.53125 0.515625q0.328125 0.1875 0.78125 0.1875q0.453125 0 0.765625 -0.1875q0.328125 -0.1875 0.53125 -0.515625q0.203125 -0.328125 0.296875 -0.765625q0.09375 -0.4375 0.09375 -0.921875l0 -0.15625q0 -0.484375 -0.09375 -0.921875q-0.09375 -0.4375 -0.296875 -0.765625q-0.203125 -0.328125 -0.53125 -0.515625q-0.3125 -0.1875 -0.78125 -0.1875q-0.453125 0 -0.78125 0.1875q-0.3125 0.1875 -0.515625 0.515625q-0.203125 0.328125 -0.296875 0.765625q-0.09375 0.4375 -0.09375 0.921875l0 0.15625zm10.545166 2.390625q0.296875 0 0.5625 -0.078125q0.28125 -0.09375 0.484375 -0.25q0.203125 -0.171875 0.3125 -0.390625q0.109375 -0.234375 0.09375 -0.5l1.921875 0q0.015625 0.609375 -0.25 1.140625q-0.265625 0.515625 -0.734375 0.90625q-0.453125 0.375 -1.0625 0.59375q-0.609375 0.21875 -1.296875 0.21875q-0.921875 0 -1.625 -0.3125q-0.6875 -0.3125 -1.15625 -0.84375q-0.46875 -0.546875 -0.703125 -1.28125q-0.234375 -0.734375 -0.234375 -1.5625l0 -0.21875q0 -0.84375 0.234375 -1.5625q0.234375 -0.734375 0.703125 -1.265625q0.46875 -0.546875 1.15625 -0.859375q0.6875 -0.328125 1.609375 -0.328125q0.734375 0 1.359375 0.234375q0.625 0.21875 1.0625 0.625q0.453125 0.390625 0.703125 0.953125q0.25 0.5625 0.234375 1.265625l-1.921875 0q0.015625 -0.28125 -0.09375 -0.546875q-0.09375 -0.265625 -0.296875 -0.453125q-0.1875 -0.203125 -0.46875 -0.3125q-0.28125 -0.109375 -0.609375 -0.109375q-0.484375 0 -0.796875 0.203125q-0.3125 0.1875 -0.5 0.515625q-0.1875 0.328125 -0.265625 0.765625q-0.078125 0.421875 -0.078125 0.875l0 0.21875q0 0.453125 0.078125 0.890625q0.078125 0.421875 0.25 0.75q0.1875 0.328125 0.5 0.53125q0.328125 0.1875 0.828125 0.1875zm8.263947 -1.796875l-0.921875 0.859375l0 2.421875l-2.03125 0l0 -11.25l2.03125 0l0 6.4375l0.609375 -0.703125l2.1875 -2.40625l2.453125 0l-2.984375 3.296875l3.40625 4.625l-2.5 0l-2.25 -3.28125zm9.654541 3.421875q-0.90625 0 -1.65625 -0.296875q-0.75 -0.296875 -1.28125 -0.8125q-0.53125 -0.515625 -0.828125 -1.21875q-0.28125 -0.703125 -0.28125 -1.5l0 -0.296875q0 -0.90625 0.28125 -1.65625q0.28125 -0.75 0.796875 -1.28125q0.515625 -0.546875 1.21875 -0.84375q0.703125 -0.3125 1.53125 -0.3125q0.859375 0 1.515625 0.296875q0.671875 0.28125 1.140625 0.796875q0.46875 0.5 0.703125 1.21875q0.25 0.71875 0.25 1.59375l0 0.875l-5.375 0q0.046875 0.390625 0.21875 0.734375q0.1875 0.328125 0.46875 0.578125q0.28125 0.234375 0.640625 0.375q0.359375 0.125 0.78125 0.125q0.296875 0 0.59375 -0.0625q0.296875 -0.0625 0.5625 -0.171875q0.28125 -0.109375 0.515625 -0.28125q0.234375 -0.171875 0.40625 -0.390625l1.015625 1.09375q-0.1875 0.265625 -0.5 0.53125q-0.296875 0.265625 -0.71875 0.46875q-0.40625 0.1875 -0.90625 0.3125q-0.5 0.125 -1.09375 0.125zm-0.234375 -6.5625q-0.34375 0 -0.640625 0.125q-0.28125 0.109375 -0.5 0.34375q-0.21875 0.21875 -0.359375 0.546875q-0.140625 0.3125 -0.21875 0.703125l3.34375 0l0 -0.171875q-0.015625 -0.3125 -0.125 -0.59375q-0.109375 -0.296875 -0.3125 -0.5q-0.203125 -0.21875 -0.5 -0.328125q-0.296875 -0.125 -0.6875 -0.125zm10.873322 -1.65625q0.46875 0 0.859375 0.0625q0.390625 0.0625 0.625 0.140625l-0.296875 2.03125q-0.40625 -0.09375 -0.828125 -0.140625q-0.40625 -0.046875 -0.796875 -0.046875q-0.859375 0 -1.375 0.328125q-0.515625 0.328125 -0.765625 0.9375l0 4.765625l-2.03125 0l0 -7.921875l1.890625 0l0.09375 1.296875q0.484375 -0.671875 1.15625 -1.0625q0.671875 -0.390625 1.46875 -0.390625z" fill-rule="nonzero"></path><path fill="#383838" d="m313.20612 180.24501q-0.046875 0.8125 -0.34375 1.453125q-0.296875 0.640625 -0.796875 1.09375q-0.5 0.453125 -1.1875 0.703125q-0.6875 0.25 -1.515625 0.25q-0.953125 0 -1.6875 -0.34375q-0.71875 -0.359375 -1.21875 -0.984375q-0.5 -0.625 -0.765625 -1.5q-0.265625 -0.875 -0.265625 -1.9375l0 -1.4375q0 -1.0625 0.28125 -1.9375q0.28125 -0.875 0.78125 -1.5q0.515625 -0.640625 1.25 -0.984375q0.734375 -0.34375 1.640625 -0.34375q0.875 0 1.5625 0.25q0.6875 0.25 1.15625 0.71875q0.484375 0.453125 0.765625 1.125q0.28125 0.65625 0.359375 1.484375l-2.046875 0q-0.03125 -0.46875 -0.15625 -0.828125q-0.109375 -0.359375 -0.328125 -0.59375q-0.21875 -0.25 -0.546875 -0.359375q-0.3125 -0.125 -0.765625 -0.125q-0.484375 0 -0.84375 0.203125q-0.34375 0.203125 -0.578125 0.609375q-0.21875 0.390625 -0.328125 0.96875q-0.109375 0.5625 -0.109375 1.296875l0 1.453125q0 1.578125 0.4375 2.328125q0.4375 0.75 1.40625 0.75q0.796875 0 1.265625 -0.421875q0.46875 -0.421875 0.53125 -1.390625l2.046875 0zm1.1858215 -0.6875q0 -0.875 0.25 -1.609375q0.25 -0.734375 0.734375 -1.265625q0.484375 -0.546875 1.171875 -0.859375q0.6875 -0.3125 1.578125 -0.3125q0.90625 0 1.59375 0.3125q0.703125 0.3125 1.171875 0.859375q0.484375 0.53125 0.734375 1.265625q0.25 0.734375 0.25 1.609375l0 0.15625q0 0.859375 -0.25 1.609375q-0.25 0.734375 -0.734375 1.28125q-0.46875 0.53125 -1.171875 0.84375q-0.6875 0.296875 -1.578125 0.296875q-0.890625 0 -1.59375 -0.296875q-0.6875 -0.3125 -1.171875 -0.84375q-0.484375 -0.546875 -0.734375 -1.28125q-0.25 -0.75 -0.25 -1.609375l0 -0.15625zm2.046875 0.15625q0 0.484375 0.09375 0.921875q0.09375 0.4375 0.296875 0.765625q0.203125 0.328125 0.53125 0.515625q0.328125 0.1875 0.78125 0.1875q0.453125 0 0.765625 -0.1875q0.328125 -0.1875 0.53125 -0.515625q0.203125 -0.328125 0.296875 -0.765625q0.09375 -0.4375 0.09375 -0.921875l0 -0.15625q0 -0.484375 -0.09375 -0.921875q-0.09375 -0.4375 -0.296875 -0.765625q-0.203125 -0.328125 -0.53125 -0.515625q-0.3125 -0.1875 -0.78125 -0.1875q-0.453125 0 -0.78125 0.1875q-0.3125 0.1875 -0.515625 0.515625q-0.203125 0.328125 -0.296875 0.765625q-0.09375 0.4375 -0.09375 0.921875l0 0.15625zm8.873291 -4.046875l0.125 1.09375q0.421875 -0.59375 1.03125 -0.921875q0.609375 -0.328125 1.359375 -0.328125q0.59375 0 1.09375 0.1875q0.5 0.171875 0.859375 0.5625q0.359375 0.375 0.5625 0.984375q0.203125 0.59375 0.203125 1.46875l0 4.875l-2.03125 0l0 -4.84375q0 -0.46875 -0.109375 -0.765625q-0.109375 -0.3125 -0.3125 -0.484375q-0.1875 -0.1875 -0.46875 -0.25q-0.28125 -0.078125 -0.625 -0.078125q-0.53125 0 -0.90625 0.21875q-0.359375 0.203125 -0.578125 0.578125l0 5.625l-2.046875 0l0 -7.921875l1.84375 0zm10.685822 -1.9375l0 1.9375l2.96875 0l0 1.5l-2.96875 0l0 3.40625q0 0.4375 0.09375 0.734375q0.109375 0.28125 0.28125 0.453125q0.1875 0.171875 0.453125 0.25q0.265625 0.0625 0.578125 0.0625q0.234375 0 0.484375 -0.015625q0.25 -0.03125 0.46875 -0.0625q0.21875 -0.03125 0.40625 -0.0625q0.203125 -0.046875 0.34375 -0.078125l0.203125 1.390625q-0.21875 0.125 -0.515625 0.21875q-0.28125 0.09375 -0.609375 0.15625q-0.3125 0.0625 -0.65625 0.09375q-0.34375 0.03125 -0.6875 0.03125q-0.65625 0 -1.1875 -0.171875q-0.53125 -0.171875 -0.90625 -0.53125q-0.375 -0.375 -0.578125 -0.921875q-0.203125 -0.5625 -0.203125 -1.34375l0 -3.609375l-1.8125 0l0 -1.5l1.8125 0l0 -1.9375l2.03125 0zm10.013916 9.859375q-0.078125 -0.140625 -0.125 -0.328125q-0.046875 -0.203125 -0.09375 -0.40625q-0.15625 0.171875 -0.390625 0.34375q-0.21875 0.15625 -0.484375 0.28125q-0.265625 0.109375 -0.59375 0.171875q-0.3125 0.078125 -0.6875 0.078125q-0.609375 0 -1.125 -0.171875q-0.5 -0.171875 -0.875 -0.484375q-0.359375 -0.3125 -0.5625 -0.75q-0.203125 -0.4375 -0.203125 -0.953125q0 -1.25 0.921875 -1.9375q0.9375 -0.6875 2.796875 -0.6875l1.140625 0l0 -0.46875q0 -0.5625 -0.375 -0.890625q-0.375 -0.34375 -1.078125 -0.34375q-0.625 0 -0.921875 0.265625q-0.28125 0.265625 -0.28125 0.71875l-2.03125 0q0 -0.515625 0.21875 -0.96875q0.234375 -0.453125 0.65625 -0.796875q0.4375 -0.34375 1.046875 -0.546875q0.625 -0.203125 1.421875 -0.203125q0.71875 0 1.328125 0.1875q0.625 0.171875 1.078125 0.515625q0.453125 0.34375 0.703125 0.875q0.265625 0.515625 0.265625 1.203125l0 3.40625q0 0.625 0.078125 1.046875q0.078125 0.421875 0.234375 0.71875l0 0.125l-2.0625 0zm-1.9375 -1.421875q0.296875 0 0.5625 -0.078125q0.265625 -0.078125 0.46875 -0.1875q0.21875 -0.125 0.375 -0.265625q0.15625 -0.15625 0.25 -0.3125l0 -1.359375l-1.046875 0q-0.46875 0 -0.8125 0.09375q-0.328125 0.09375 -0.546875 0.265625q-0.21875 0.15625 -0.328125 0.390625q-0.09375 0.21875 -0.09375 0.5q0 0.40625 0.28125 0.6875q0.296875 0.265625 0.890625 0.265625zm6.3264465 -6.5l4.3125 0l0 6.265625l2.140625 0l0 1.65625l-6.453125 0l0 -1.65625l2.25 0l0 -4.609375l-2.25 0l0 -1.65625zm2.109375 -2.03125q0 -0.234375 0.078125 -0.4375q0.09375 -0.203125 0.234375 -0.34375q0.15625 -0.140625 0.375 -0.21875q0.21875 -0.078125 0.484375 -0.078125q0.53125 0 0.84375 0.296875q0.328125 0.296875 0.328125 0.78125q0 0.46875 -0.328125 0.78125q-0.3125 0.296875 -0.84375 0.296875q-0.265625 0 -0.484375 -0.078125q-0.21875 -0.078125 -0.375 -0.21875q-0.140625 -0.140625 -0.234375 -0.34375q-0.078125 -0.203125 -0.078125 -0.4375zm7.982666 2.03125l0.125 1.09375q0.421875 -0.59375 1.03125 -0.921875q0.609375 -0.328125 1.359375 -0.328125q0.59375 0 1.09375 0.1875q0.5 0.171875 0.859375 0.5625q0.359375 0.375 0.5625 0.984375q0.203125 0.59375 0.203125 1.46875l0 4.875l-2.03125 0l0 -4.84375q0 -0.46875 -0.109375 -0.765625q-0.109375 -0.3125 -0.3125 -0.484375q-0.1875 -0.1875 -0.46875 -0.25q-0.28125 -0.078125 -0.625 -0.078125q-0.53125 0 -0.90625 0.21875q-0.359375 0.203125 -0.578125 0.578125l0 5.625l-2.046875 0l0 -7.921875l1.84375 0zm10.795197 8.0625q-0.90625 0 -1.65625 -0.296875q-0.75 -0.296875 -1.28125 -0.8125q-0.53125 -0.515625 -0.828125 -1.21875q-0.28125 -0.703125 -0.28125 -1.5l0 -0.296875q0 -0.90625 0.28125 -1.65625q0.28125 -0.75 0.796875 -1.28125q0.515625 -0.546875 1.21875 -0.84375q0.703125 -0.3125 1.53125 -0.3125q0.859375 0 1.515625 0.296875q0.671875 0.28125 1.140625 0.796875q0.46875 0.5 0.703125 1.21875q0.25 0.71875 0.25 1.59375l0 0.875l-5.375 0q0.046875 0.390625 0.21875 0.734375q0.1875 0.328125 0.46875 0.578125q0.28125 0.234375 0.640625 0.375q0.359375 0.125 0.78125 0.125q0.296875 0 0.59375 -0.0625q0.296875 -0.0625 0.5625 -0.171875q0.28125 -0.109375 0.515625 -0.28125q0.234375 -0.171875 0.40625 -0.390625l1.015625 1.09375q-0.1875 0.265625 -0.5 0.53125q-0.296875 0.265625 -0.71875 0.46875q-0.40625 0.1875 -0.90625 0.3125q-0.5 0.125 -1.09375 0.125zm-0.234375 -6.5625q-0.34375 0 -0.640625 0.125q-0.28125 0.109375 -0.5 0.34375q-0.21875 0.21875 -0.359375 0.546875q-0.140625 0.3125 -0.21875 0.703125l3.34375 0l0 -0.171875q-0.015625 -0.3125 -0.125 -0.59375q-0.109375 -0.296875 -0.3125 -0.5q-0.203125 -0.21875 -0.5 -0.328125q-0.296875 -0.125 -0.6875 -0.125zm10.873291 -1.65625q0.46875 0 0.859375 0.0625q0.390625 0.0625 0.625 0.140625l-0.296875 2.03125q-0.40625 -0.09375 -0.828125 -0.140625q-0.40625 -0.046875 -0.796875 -0.046875q-0.859375 0 -1.375 0.328125q-0.515625 0.328125 -0.765625 0.9375l0 4.765625l-2.03125 0l0 -7.921875l1.890625 0l0.09375 1.296875q0.484375 -0.671875 1.15625 -1.0625q0.671875 -0.390625 1.46875 -0.390625z" fill-rule="nonzero"></path><path fill="#000000" fill-opacity="0.0" d="m297.3968 185.24678l91.491394 0l0 47.60881l-91.491394 0z" fill-rule="evenodd"></path><path fill="#383838" d="m313.5374 203.4049l-4.453125 0l0 3.765625l5.1875 0l0 1.15625l-6.546875 0l0 -10.671875l6.484375 0l0 1.171875l-5.125 0l0 3.421875l4.453125 0l0 1.15625zm6.138916 -4.921875l0 1.921875l3.015625 0l0 1.046875l-3.015625 0l0 4.296875q0 0.46875 0.109375 0.765625q0.125 0.296875 0.328125 0.484375q0.203125 0.171875 0.46875 0.25q0.265625 0.078125 0.578125 0.078125q0.21875 0 0.453125 -0.03125q0.234375 -0.03125 0.453125 -0.0625q0.21875 -0.03125 0.40625 -0.0625q0.203125 -0.046875 0.328125 -0.078125l0.1875 0.953125q-0.171875 0.109375 -0.40625 0.1875q-0.234375 0.078125 -0.53125 0.125q-0.28125 0.0625 -0.609375 0.078125q-0.3125 0.03125 -0.625 0.03125q-0.53125 0 -0.984375 -0.140625q-0.453125 -0.15625 -0.796875 -0.484375q-0.328125 -0.328125 -0.53125 -0.84375q-0.1875 -0.515625 -0.1875 -1.25l0 -4.296875l-2.078125 0l0 -1.046875l2.078125 0l0 -1.921875l1.359375 0zm6.9358215 3.09375q0.421875 -0.625 1.046875 -0.96875q0.625 -0.34375 1.40625 -0.359375q0.625 0 1.125 0.1875q0.515625 0.171875 0.875 0.5625q0.359375 0.375 0.546875 0.96875q0.203125 0.578125 0.203125 1.375l0 4.984375l-1.359375 0l0 -5.0q0 -0.984375 -0.46875 -1.453125q-0.46875 -0.46875 -1.328125 -0.46875q-0.65625 0 -1.1875 0.328125q-0.53125 0.3125 -0.859375 0.84375l0 5.75l-1.34375 0l0 -11.25l1.34375 0l0 4.5zm8.060791 -1.171875l0.046875 0.75q0.234375 -0.421875 0.625 -0.65625q0.390625 -0.234375 0.953125 -0.25q1.09375 0 1.453125 0.859375q0.234375 -0.390625 0.625 -0.609375q0.390625 -0.234375 0.9375 -0.25q0.859375 0 1.328125 0.546875q0.46875 0.53125 0.46875 1.609375l0 5.921875l-1.28125 0l0 -5.9375q0 -0.984375 -0.921875 -0.984375q-0.234375 0 -0.421875 0.0625q-0.171875 0.0625 -0.296875 0.1875q-0.109375 0.109375 -0.171875 0.265625q-0.0625 0.140625 -0.078125 0.3125l0 6.09375l-1.296875 0l0 -5.9375q0 -0.484375 -0.21875 -0.734375q-0.203125 -0.25 -0.671875 -0.25q-0.421875 0 -0.65625 0.171875q-0.234375 0.171875 -0.34375 0.4375l0 6.3125l-1.28125 0l0 -7.921875l1.203125 0zm8.388947 0l4.046875 0l0 6.75l2.59375 0l0 1.171875l-6.640625 0l0 -1.171875l2.703125 0l0 -5.578125l-2.703125 0l0 -1.171875zm2.515625 -2.078125q0 -0.34375 0.203125 -0.5625q0.203125 -0.234375 0.609375 -0.234375q0.40625 0 0.609375 0.234375q0.203125 0.21875 0.203125 0.5625q0 0.328125 -0.203125 0.546875q-0.203125 0.21875 -0.609375 0.21875q-0.40625 0 -0.609375 -0.21875q-0.203125 -0.21875 -0.203125 -0.546875zm7.279541 2.078125l0.09375 1.171875q0.4375 -0.625 1.0625 -0.96875q0.640625 -0.34375 1.40625 -0.359375q0.625 0 1.125 0.1875q0.515625 0.171875 0.875 0.546875q0.359375 0.375 0.546875 0.953125q0.203125 0.5625 0.203125 1.359375l0 5.03125l-1.34375 0l0 -5.0q0 -0.53125 -0.125 -0.890625q-0.109375 -0.375 -0.34375 -0.59375q-0.234375 -0.234375 -0.578125 -0.328125q-0.328125 -0.109375 -0.75 -0.109375q-0.6875 0 -1.203125 0.34375q-0.515625 0.34375 -0.828125 0.890625l0 5.6875l-1.34375 0l0 -7.921875l1.203125 0zm11.092072 8.0625q-0.84375 0 -1.546875 -0.28125q-0.6875 -0.28125 -1.1875 -0.796875q-0.5 -0.515625 -0.78125 -1.21875q-0.28125 -0.703125 -0.28125 -1.53125l0 -0.296875q0 -0.96875 0.3125 -1.71875q0.3125 -0.765625 0.8125 -1.28125q0.515625 -0.53125 1.15625 -0.8125q0.65625 -0.28125 1.328125 -0.28125q0.859375 0 1.5 0.296875q0.640625 0.296875 1.0625 0.828125q0.4375 0.515625 0.640625 1.234375q0.203125 0.703125 0.203125 1.53125l0 0.609375l-5.65625 0q0.015625 0.546875 0.203125 1.03125q0.1875 0.46875 0.515625 0.828125q0.328125 0.34375 0.78125 0.5625q0.453125 0.203125 1.0 0.203125q0.734375 0 1.296875 -0.296875q0.5625 -0.296875 0.9375 -0.78125l0.828125 0.640625q-0.203125 0.3125 -0.5 0.59375q-0.296875 0.265625 -0.6875 0.484375q-0.390625 0.203125 -0.875 0.328125q-0.484375 0.125 -1.0625 0.125zm-0.1875 -7.09375q-0.40625 0 -0.78125 0.15625q-0.359375 0.140625 -0.65625 0.4375q-0.28125 0.28125 -0.484375 0.703125q-0.203125 0.421875 -0.28125 0.96875l4.265625 0l0 -0.109375q-0.03125 -0.390625 -0.15625 -0.78125q-0.125 -0.390625 -0.375 -0.6875q-0.25 -0.3125 -0.625 -0.5q-0.375 -0.1875 -0.90625 -0.1875zm10.670166 -1.125q0.1875 0 0.390625 0.015625q0.203125 0.015625 0.390625 0.046875q0.1875 0.015625 0.34375 0.0625q0.15625 0.03125 0.265625 0.078125l-0.1875 1.3125q-0.390625 -0.078125 -0.75 -0.109375q-0.359375 -0.046875 -0.734375 -0.046875q-0.953125 0 -1.546875 0.4375q-0.59375 0.421875 -0.875 1.203125l0 5.078125l-1.359375 0l0 -7.921875l1.296875 0l0.0625 1.25q0.484375 -0.640625 1.15625 -1.015625q0.6875 -0.390625 1.546875 -0.390625z" fill-rule="nonzero"></path><path fill="#37474f" d="m381.3165 389.00507l0 0c-7.5487366 0 -13.668182 -6.119446 -13.668182 -13.668182l0 0c0 -3.6250305 1.440033 -7.101593 4.003296 -9.664886c2.5632935 -2.563263 6.039856 -4.003296 9.664886 -4.003296l0 0c7.5487366 0 13.668182 6.119446 13.668182 13.668182l0 0c0 7.5487366 -6.119446 13.668182 -13.668182 13.668182z" fill-rule="evenodd"></path><path fill="#ffffff" d="m379.93515 389.0052l0 -14.995941l-2.920227 0l4.2957153 -5.7536926l4.2957153 5.7536926l-2.920227 0l0 14.995941z" fill-rule="evenodd"></path><path fill="#f09300" d="m282.7814 374.93863l385.093 0c2.1241455 0 4.161255 0.84381104 5.663269 2.3457947c1.5020142 1.5019836 2.3458252 3.5391235 2.3458252 5.663269l0 37.076782c0 0.0018005371 -0.0014648438 0.0032653809 -0.0032958984 0.0032653809l-385.08975 -0.0032653809c-4.423279 0 -8.009033 -3.585785 -8.009033 -8.009064l0 -37.076782l0 0c0 -0.0018005371 0.0014648438 -0.0032653809 0.0032653809 -0.0032653809z" fill-rule="evenodd"></path><path fill="#000000" fill-opacity="0.0" d="m283.23096 381.90552l367.67853 0l0 27.334137l-367.67853 0z" fill-rule="evenodd"></path><path fill="#383838" d="m439.8895 404.9855l-2.03125 0l0 -4.625l-3.03125 0l0 4.625l-2.03125 0l0 -10.671875l2.03125 0l0 4.375l3.03125 0l0 -4.375l2.03125 0l0 10.671875zm6.7795715 0q-0.078125 -0.140625 -0.125 -0.328125q-0.046875 -0.203125 -0.09375 -0.40625q-0.15625 0.171875 -0.390625 0.34375q-0.21875 0.15625 -0.484375 0.28125q-0.265625 0.109375 -0.59375 0.171875q-0.3125 0.078125 -0.6875 0.078125q-0.609375 0 -1.125 -0.171875q-0.5 -0.171875 -0.875 -0.484375q-0.359375 -0.3125 -0.5625 -0.75q-0.203125 -0.4375 -0.203125 -0.953125q0 -1.25 0.921875 -1.9375q0.9375 -0.6875 2.796875 -0.6875l1.140625 0l0 -0.46875q0 -0.5625 -0.375 -0.890625q-0.375 -0.34375 -1.078125 -0.34375q-0.625 0 -0.921875 0.265625q-0.28125 0.265625 -0.28125 0.71875l-2.03125 0q0 -0.515625 0.21875 -0.96875q0.234375 -0.453125 0.65625 -0.796875q0.4375 -0.34375 1.046875 -0.546875q0.625 -0.203125 1.421875 -0.203125q0.71875 0 1.328125 0.1875q0.625 0.171875 1.078125 0.515625q0.453125 0.34375 0.703125 0.875q0.265625 0.515625 0.265625 1.203125l0 3.40625q0 0.625 0.078125 1.046875q0.078125 0.421875 0.234375 0.71875l0 0.125l-2.0625 0zm-1.9375 -1.421875q0.296875 0 0.5625 -0.078125q0.265625 -0.078125 0.46875 -0.1875q0.21875 -0.125 0.375 -0.265625q0.15625 -0.15625 0.25 -0.3125l0 -1.359375l-1.046875 0q-0.46875 0 -0.8125 0.09375q-0.328125 0.09375 -0.546875 0.265625q-0.21875 0.15625 -0.328125 0.390625q-0.09375 0.21875 -0.09375 0.5q0 0.40625 0.28125 0.6875q0.296875 0.265625 0.890625 0.265625zm11.467041 -6.65625q0.46875 0 0.859375 0.0625q0.390625 0.0625 0.625 0.140625l-0.296875 2.03125q-0.40625 -0.09375 -0.828125 -0.140625q-0.40625 -0.046875 -0.796875 -0.046875q-0.859375 0 -1.375 0.328125q-0.515625 0.328125 -0.765625 0.9375l0 4.765625l-2.03125 0l0 -7.921875l1.890625 0l0.09375 1.296875q0.484375 -0.671875 1.15625 -1.0625q0.671875 -0.390625 1.46875 -0.390625zm2.9045715 4.0625q0 -0.90625 0.203125 -1.65625q0.203125 -0.75 0.609375 -1.28125q0.40625 -0.53125 0.96875 -0.828125q0.578125 -0.296875 1.328125 -0.296875q0.625 0 1.09375 0.234375q0.46875 0.21875 0.828125 0.625l0 -4.03125l2.046875 0l0 11.25l-1.828125 0l-0.109375 -0.828125q-0.375 0.46875 -0.890625 0.71875q-0.5 0.25 -1.15625 0.25q-0.734375 0 -1.3125 -0.296875q-0.5625 -0.3125 -0.96875 -0.84375q-0.390625 -0.53125 -0.609375 -1.265625q-0.203125 -0.734375 -0.203125 -1.609375l0 -0.140625zm2.03125 0.140625q0 0.5 0.078125 0.9375q0.09375 0.421875 0.28125 0.75q0.1875 0.3125 0.484375 0.5q0.296875 0.171875 0.734375 0.171875q0.53125 0 0.875 -0.21875q0.34375 -0.234375 0.546875 -0.625l0 -3.203125q-0.203125 -0.40625 -0.546875 -0.625q-0.34375 -0.234375 -0.859375 -0.234375q-0.4375 0 -0.75 0.1875q-0.296875 0.1875 -0.484375 0.515625q-0.1875 0.328125 -0.28125 0.765625q-0.078125 0.4375 -0.078125 0.9375l0 0.140625zm12.029541 1.390625l0.703125 -5.4375l1.859375 0l-1.421875 7.921875l-1.78125 0l-1.046875 -5.046875l-1.0 5.046875l-1.78125 0l-1.421875 -7.921875l1.859375 0l0.6875 5.453125l1.0 -5.453125l1.359375 0l0.984375 5.4375zm8.685822 2.484375q-0.078125 -0.140625 -0.125 -0.328125q-0.046875 -0.203125 -0.09375 -0.40625q-0.15625 0.171875 -0.390625 0.34375q-0.21875 0.15625 -0.484375 0.28125q-0.265625 0.109375 -0.59375 0.171875q-0.3125 0.078125 -0.6875 0.078125q-0.609375 0 -1.125 -0.171875q-0.5 -0.171875 -0.875 -0.484375q-0.359375 -0.3125 -0.5625 -0.75q-0.203125 -0.4375 -0.203125 -0.953125q0 -1.25 0.921875 -1.9375q0.9375 -0.6875 2.796875 -0.6875l1.140625 0l0 -0.46875q0 -0.5625 -0.375 -0.890625q-0.375 -0.34375 -1.078125 -0.34375q-0.625 0 -0.921875 0.265625q-0.28125 0.265625 -0.28125 0.71875l-2.03125 0q0 -0.515625 0.21875 -0.96875q0.234375 -0.453125 0.65625 -0.796875q0.4375 -0.34375 1.046875 -0.546875q0.625 -0.203125 1.421875 -0.203125q0.71875 0 1.328125 0.1875q0.625 0.171875 1.078125 0.515625q0.453125 0.34375 0.703125 0.875q0.265625 0.515625 0.265625 1.203125l0 3.40625q0 0.625 0.078125 1.046875q0.078125 0.421875 0.234375 0.71875l0 0.125l-2.0625 0zm-1.9375 -1.421875q0.296875 0 0.5625 -0.078125q0.265625 -0.078125 0.46875 -0.1875q0.21875 -0.125 0.375 -0.265625q0.15625 -0.15625 0.25 -0.3125l0 -1.359375l-1.046875 0q-0.46875 0 -0.8125 0.09375q-0.328125 0.09375 -0.546875 0.265625q-0.21875 0.15625 -0.328125 0.390625q-0.09375 0.21875 -0.09375 0.5q0 0.40625 0.28125 0.6875q0.296875 0.265625 0.890625 0.265625zm11.467041 -6.65625q0.46875 0 0.859375 0.0625q0.390625 0.0625 0.625 0.140625l-0.296875 2.03125q-0.40625 -0.09375 -0.828125 -0.140625q-0.40625 -0.046875 -0.796875 -0.046875q-0.859375 0 -1.375 0.328125q-0.515625 0.328125 -0.765625 0.9375l0 4.765625l-2.03125 0l0 -7.921875l1.890625 0l0.09375 1.296875q0.484375 -0.671875 1.15625 -1.0625q0.671875 -0.390625 1.46875 -0.390625zm6.9514465 8.21875q-0.90625 0 -1.65625 -0.296875q-0.75 -0.296875 -1.28125 -0.8125q-0.53125 -0.515625 -0.828125 -1.21875q-0.28125 -0.703125 -0.28125 -1.5l0 -0.296875q0 -0.90625 0.28125 -1.65625q0.28125 -0.75 0.796875 -1.28125q0.515625 -0.546875 1.21875 -0.84375q0.703125 -0.3125 1.53125 -0.3125q0.859375 0 1.515625 0.296875q0.671875 0.28125 1.140625 0.796875q0.46875 0.5 0.703125 1.21875q0.25 0.71875 0.25 1.59375l0 0.875l-5.375 0q0.046875 0.390625 0.21875 0.734375q0.1875 0.328125 0.46875 0.578125q0.28125 0.234375 0.640625 0.375q0.359375 0.125 0.78125 0.125q0.296875 0 0.59375 -0.0625q0.296875 -0.0625 0.5625 -0.171875q0.28125 -0.109375 0.515625 -0.28125q0.234375 -0.171875 0.40625 -0.390625l1.015625 1.09375q-0.1875 0.265625 -0.5 0.53125q-0.296875 0.265625 -0.71875 0.46875q-0.40625 0.1875 -0.90625 0.3125q-0.5 0.125 -1.09375 0.125zm-0.234375 -6.5625q-0.34375 0 -0.640625 0.125q-0.28125 0.109375 -0.5 0.34375q-0.21875 0.21875 -0.359375 0.546875q-0.140625 0.3125 -0.21875 0.703125l3.34375 0l0 -0.171875q-0.015625 -0.3125 -0.125 -0.59375q-0.109375 -0.296875 -0.3125 -0.5q-0.203125 -0.21875 -0.5 -0.328125q-0.296875 -0.125 -0.6875 -0.125z" fill-rule="nonzero"></path><path fill="#000000" fill-opacity="0.0" d="m475.19946 320.7034l188.75592 0l0 54.236237l-188.75592 0z" fill-rule="evenodd"></path><path fill="#383838" d="m505.4191 341.54904l-3.203125 0l-0.625 2.234375l-2.171875 0l3.5 -10.671875l1.859375 0l3.4375 10.671875l-2.171875 0l-0.625 -2.234375zm-2.6875 -1.75l2.203125 0l-1.09375 -3.921875l-1.109375 3.921875zm8.763947 -6.6875l1.015625 4.015625l1.140625 -4.015625l2.5625 0l0 10.671875l-1.890625 0l0 -3.15625l0.09375 -4.984375l-1.40625 4.625l-1.015625 0l-1.25 -4.4375l0.078125 4.796875l0 3.15625l-1.875 0l0 -10.671875l2.546875 0zm6.232666 10.671875l0 -10.671875l2.75 0q1.0625 0 1.921875 0.375q0.859375 0.359375 1.46875 1.015625q0.625 0.640625 0.953125 1.546875q0.328125 0.890625 0.328125 1.96875l0 0.875q0 1.078125 -0.328125 1.984375q-0.328125 0.890625 -0.9375 1.546875q-0.59375 0.640625 -1.4375 1.0q-0.84375 0.359375 -1.859375 0.359375l-2.859375 0zm2.0625 -9.0l0 7.34375l0.796875 0q0.578125 0 1.03125 -0.21875q0.46875 -0.21875 0.78125 -0.640625q0.3125 -0.421875 0.484375 -1.015625q0.171875 -0.59375 0.171875 -1.359375l0 -0.890625q0 -0.71875 -0.171875 -1.296875q-0.15625 -0.59375 -0.484375 -1.015625q-0.328125 -0.4375 -0.8125 -0.671875q-0.46875 -0.234375 -1.109375 -0.234375l-0.6875 0zm19.184143 5.015625l-1.5625 0l0 3.984375l-2.0625 0l0 -10.671875l3.578125 0q0.890625 0 1.609375 0.21875q0.71875 0.203125 1.21875 0.609375q0.515625 0.40625 0.78125 1.015625q0.28125 0.59375 0.28125 1.375q0 0.578125 -0.140625 1.03125q-0.125 0.453125 -0.390625 0.828125q-0.25 0.359375 -0.609375 0.640625q-0.34375 0.265625 -0.78125 0.453125l2.296875 4.40625l0 0.09375l-2.21875 0l-2.0 -3.984375zm-1.5625 -1.671875l1.53125 0q0.859375 0 1.328125 -0.4375q0.484375 -0.453125 0.484375 -1.21875q0 -0.796875 -0.46875 -1.234375q-0.453125 -0.453125 -1.359375 -0.453125l-1.515625 0l0 3.34375zm14.185791 1.109375q0 1.03125 -0.28125 1.890625q-0.265625 0.859375 -0.78125 1.484375q-0.515625 0.625 -1.25 0.96875q-0.734375 0.34375 -1.65625 0.34375q-0.921875 0 -1.640625 -0.34375q-0.71875 -0.34375 -1.21875 -0.96875q-0.484375 -0.625 -0.734375 -1.484375q-0.25 -0.859375 -0.25 -1.890625l0 -1.546875q0 -1.03125 0.25 -1.890625q0.25 -0.875 0.734375 -1.5q0.5 -0.625 1.21875 -0.96875q0.71875 -0.359375 1.640625 -0.359375q0.921875 0 1.65625 0.359375q0.734375 0.34375 1.25 0.96875q0.515625 0.625 0.78125 1.5q0.28125 0.859375 0.28125 1.890625l0 1.546875zm-2.09375 -1.5625q0 -0.65625 -0.109375 -1.203125q-0.109375 -0.546875 -0.34375 -0.9375q-0.21875 -0.40625 -0.578125 -0.625q-0.34375 -0.234375 -0.84375 -0.234375q-0.5 0 -0.84375 0.234375q-0.328125 0.21875 -0.546875 0.625q-0.203125 0.390625 -0.296875 0.9375q-0.078125 0.546875 -0.078125 1.203125l0 1.5625q0 0.640625 0.078125 1.1875q0.09375 0.546875 0.296875 0.953125q0.21875 0.40625 0.546875 0.640625q0.34375 0.21875 0.84375 0.21875q0.5 0 0.84375 -0.21875q0.359375 -0.234375 0.578125 -0.625q0.234375 -0.40625 0.34375 -0.953125q0.109375 -0.546875 0.109375 -1.203125l0 -1.5625zm10.842041 2.765625q-0.046875 0.8125 -0.34375 1.453125q-0.296875 0.640625 -0.796875 1.09375q-0.5 0.453125 -1.1875 0.703125q-0.6875 0.25 -1.515625 0.25q-0.953125 0 -1.6875 -0.34375q-0.71875 -0.359375 -1.21875 -0.984375q-0.5 -0.625 -0.765625 -1.5q-0.265625 -0.875 -0.265625 -1.9375l0 -1.4375q0 -1.0625 0.28125 -1.9375q0.28125 -0.875 0.78125 -1.5q0.515625 -0.640625 1.25 -0.984375q0.734375 -0.34375 1.640625 -0.34375q0.875 0 1.5625 0.25q0.6875 0.25 1.15625 0.71875q0.484375 0.453125 0.765625 1.125q0.28125 0.65625 0.359375 1.484375l-2.046875 0q-0.03125 -0.46875 -0.15625 -0.828125q-0.109375 -0.359375 -0.328125 -0.59375q-0.21875 -0.25 -0.546875 -0.359375q-0.3125 -0.125 -0.765625 -0.125q-0.484375 0 -0.84375 0.203125q-0.34375 0.203125 -0.578125 0.609375q-0.21875 0.390625 -0.328125 0.96875q-0.109375 0.5625 -0.109375 1.296875l0 1.453125q0 1.578125 0.4375 2.328125q0.4375 0.75 1.40625 0.75q0.796875 0 1.265625 -0.421875q0.46875 -0.421875 0.53125 -1.390625l2.046875 0zm2.732666 -4.578125l0.0625 0.953125q0.21875 -0.515625 0.625 -0.8125q0.40625 -0.296875 0.96875 -0.296875q0.96875 0 1.25 0.84375q0.234375 -0.390625 0.59375 -0.609375q0.375 -0.234375 0.890625 -0.234375q0.34375 0 0.65625 0.140625q0.3125 0.125 0.546875 0.421875q0.234375 0.28125 0.359375 0.75q0.125 0.453125 0.125 1.109375l0 5.65625l-1.84375 0l0 -5.65625q0 -0.234375 -0.046875 -0.375q-0.046875 -0.15625 -0.140625 -0.234375q-0.078125 -0.078125 -0.1875 -0.109375q-0.09375 -0.046875 -0.203125 -0.046875q-0.21875 0 -0.375 0.109375q-0.140625 0.09375 -0.21875 0.265625l0 6.046875l-1.796875 0l0 -5.671875q0 -0.21875 -0.046875 -0.359375q-0.03125 -0.15625 -0.109375 -0.234375q-0.078125 -0.078125 -0.1875 -0.109375q-0.09375 -0.046875 -0.21875 -0.046875q-0.234375 0 -0.375 0.140625q-0.140625 0.125 -0.21875 0.34375l0 5.9375l-1.859375 0l0 -7.921875l1.75 0zm16.121643 3.90625q0 -0.90625 0.203125 -1.65625q0.203125 -0.75 0.609375 -1.28125q0.40625 -0.53125 0.96875 -0.828125q0.578125 -0.296875 1.328125 -0.296875q0.625 0 1.09375 0.234375q0.46875 0.21875 0.828125 0.625l0 -4.03125l2.046875 0l0 11.25l-1.828125 0l-0.109375 -0.828125q-0.375 0.46875 -0.890625 0.71875q-0.5 0.25 -1.15625 0.25q-0.734375 0 -1.3125 -0.296875q-0.5625 -0.3125 -0.96875 -0.84375q-0.390625 -0.53125 -0.609375 -1.265625q-0.203125 -0.734375 -0.203125 -1.609375l0 -0.140625zm2.03125 0.140625q0 0.5 0.078125 0.9375q0.09375 0.421875 0.28125 0.75q0.1875 0.3125 0.484375 0.5q0.296875 0.171875 0.734375 0.171875q0.53125 0 0.875 -0.21875q0.34375 -0.234375 0.546875 -0.625l0 -3.203125q-0.203125 -0.40625 -0.546875 -0.625q-0.34375 -0.234375 -0.859375 -0.234375q-0.4375 0 -0.75 0.1875q-0.296875 0.1875 -0.484375 0.515625q-0.1875 0.328125 -0.28125 0.765625q-0.078125 0.4375 -0.078125 0.9375l0 0.140625zm12.654541 -4.203125q0.46875 0 0.859375 0.0625q0.390625 0.0625 0.625 0.140625l-0.296875 2.03125q-0.40625 -0.09375 -0.828125 -0.140625q-0.40625 -0.046875 -0.796875 -0.046875q-0.859375 0 -1.375 0.328125q-0.515625 0.328125 -0.765625 0.9375l0 4.765625l-2.03125 0l0 -7.921875l1.890625 0l0.09375 1.296875q0.484375 -0.671875 1.15625 -1.0625q0.671875 -0.390625 1.46875 -0.390625zm3.654541 0.15625l4.3125 0l0 6.265625l2.140625 0l0 1.65625l-6.453125 0l0 -1.65625l2.25 0l0 -4.609375l-2.25 0l0 -1.65625zm2.109375 -2.03125q0 -0.234375 0.078125 -0.4375q0.09375 -0.203125 0.234375 -0.34375q0.15625 -0.140625 0.375 -0.21875q0.21875 -0.078125 0.484375 -0.078125q0.53125 0 0.84375 0.296875q0.328125 0.296875 0.328125 0.78125q0 0.46875 -0.328125 0.78125q-0.3125 0.296875 -0.84375 0.296875q-0.265625 0 -0.484375 -0.078125q-0.21875 -0.078125 -0.375 -0.21875q-0.140625 -0.140625 -0.234375 -0.34375q-0.078125 -0.203125 -0.078125 -0.4375zm9.513977 7.609375l0.09375 0.5625l0.109375 -0.546875l1.734375 -5.59375l2.125 0l-3.0 7.921875l-1.921875 0l-3.015625 -7.921875l2.125 0l1.75 5.578125zm9.263916 2.484375q-0.90625 0 -1.65625 -0.296875q-0.75 -0.296875 -1.28125 -0.8125q-0.53125 -0.515625 -0.828125 -1.21875q-0.28125 -0.703125 -0.28125 -1.5l0 -0.296875q0 -0.90625 0.28125 -1.65625q0.28125 -0.75 0.796875 -1.28125q0.515625 -0.546875 1.21875 -0.84375q0.703125 -0.3125 1.53125 -0.3125q0.859375 0 1.515625 0.296875q0.671875 0.28125 1.140625 0.796875q0.46875 0.5 0.703125 1.21875q0.25 0.71875 0.25 1.59375l0 0.875l-5.375 0q0.046875 0.390625 0.21875 0.734375q0.1875 0.328125 0.46875 0.578125q0.28125 0.234375 0.640625 0.375q0.359375 0.125 0.78125 0.125q0.296875 0 0.59375 -0.0625q0.296875 -0.0625 0.5625 -0.171875q0.28125 -0.109375 0.515625 -0.28125q0.234375 -0.171875 0.40625 -0.390625l1.015625 1.09375q-0.1875 0.265625 -0.5 0.53125q-0.296875 0.265625 -0.71875 0.46875q-0.40625 0.1875 -0.90625 0.3125q-0.5 0.125 -1.09375 0.125zm-0.234375 -6.5625q-0.34375 0 -0.640625 0.125q-0.28125 0.109375 -0.5 0.34375q-0.21875 0.21875 -0.359375 0.546875q-0.140625 0.3125 -0.21875 0.703125l3.34375 0l0 -0.171875q-0.015625 -0.3125 -0.125 -0.59375q-0.109375 -0.296875 -0.3125 -0.5q-0.203125 -0.21875 -0.5 -0.328125q-0.296875 -0.125 -0.6875 -0.125zm10.873291 -1.65625q0.46875 0 0.859375 0.0625q0.390625 0.0625 0.625 0.140625l-0.296875 2.03125q-0.40625 -0.09375 -0.828125 -0.140625q-0.40625 -0.046875 -0.796875 -0.046875q-0.859375 0 -1.375 0.328125q-0.515625 0.328125 -0.765625 0.9375l0 4.765625l-2.03125 0l0 -7.921875l1.890625 0l0.09375 1.296875q0.484375 -0.671875 1.15625 -1.0625q0.671875 -0.390625 1.46875 -0.390625zm8.217041 5.90625q0 -0.1875 -0.078125 -0.328125q-0.078125 -0.140625 -0.296875 -0.25q-0.21875 -0.125 -0.578125 -0.21875q-0.359375 -0.109375 -0.90625 -0.21875q-0.703125 -0.140625 -1.28125 -0.34375q-0.5625 -0.21875 -0.984375 -0.515625q-0.40625 -0.296875 -0.640625 -0.671875q-0.21875 -0.390625 -0.21875 -0.90625q0 -0.484375 0.234375 -0.921875q0.234375 -0.453125 0.671875 -0.78125q0.4375 -0.34375 1.0625 -0.546875q0.625 -0.203125 1.421875 -0.203125q0.828125 0 1.484375 0.203125q0.65625 0.1875 1.109375 0.53125q0.46875 0.34375 0.703125 0.8125q0.25 0.46875 0.25 1.015625l-2.03125 0q0 -0.46875 -0.375 -0.765625q-0.375 -0.3125 -1.140625 -0.3125q-0.703125 0 -1.078125 0.25q-0.359375 0.25 -0.359375 0.625q0 0.1875 0.078125 0.34375q0.078125 0.140625 0.265625 0.265625q0.1875 0.109375 0.5 0.21875q0.328125 0.09375 0.828125 0.171875q0.71875 0.109375 1.328125 0.296875q0.609375 0.1875 1.0625 0.484375q0.453125 0.28125 0.703125 0.703125q0.25 0.40625 0.25 0.96875q0 0.53125 -0.25 0.984375q-0.25 0.4375 -0.71875 0.765625q-0.46875 0.3125 -1.125 0.5q-0.65625 0.171875 -1.46875 0.171875q-0.90625 0 -1.59375 -0.234375q-0.671875 -0.234375 -1.140625 -0.609375q-0.453125 -0.375 -0.703125 -0.859375q-0.234375 -0.484375 -0.234375 -0.96875l1.9375 0q0.03125 0.328125 0.1875 0.5625q0.15625 0.21875 0.390625 0.375q0.234375 0.140625 0.546875 0.203125q0.3125 0.0625 0.640625 0.0625q0.765625 0 1.15625 -0.234375q0.390625 -0.25 0.390625 -0.625z" fill-rule="nonzero"></path><path fill="#37474f" d="m565.81647 389.00507l0 0c-7.548706 0 -13.668152 -6.119446 -13.668152 -13.668182l0 0c0 -3.6250305 1.4400024 -7.101593 4.003296 -9.664886c2.5632935 -2.563263 6.039856 -4.003296 9.664856 -4.003296l0 0c7.548767 0 13.668213 6.119446 13.668213 13.668182l0 0c0 7.5487366 -6.119446 13.668182 -13.668213 13.668182z" fill-rule="evenodd"></path><path fill="#ffffff" d="m564.4351 389.0052l0 -14.995941l-2.920227 0l4.2957153 -5.7536926l4.2957153 5.7536926l-2.920227 0l0 14.995941z" fill-rule="evenodd"></path><path fill="#000000" fill-opacity="0.0" d="m283.23096 258.01575l393.10236 0l0 62.64566l-393.10236 0z" fill-rule="evenodd"></path><path fill="#383838" d="m423.53534 299.09576l0 -10.671875l2.75 0q1.0625 0 1.921875 0.375q0.859375 0.359375 1.46875 1.015625q0.625 0.640625 0.953125 1.546875q0.328125 0.890625 0.328125 1.96875l0 0.875q0 1.078125 -0.328125 1.984375q-0.328125 0.890625 -0.9375 1.546875q-0.59375 0.640625 -1.4375 1.0q-0.84375 0.359375 -1.859375 0.359375l-2.859375 0zm2.0625 -9.0l0 7.34375l0.796875 0q0.578125 0 1.03125 -0.21875q0.46875 -0.21875 0.78125 -0.640625q0.3125 -0.421875 0.484375 -1.015625q0.171875 -0.59375 0.171875 -1.359375l0 -0.890625q0 -0.71875 -0.171875 -1.296875q-0.15625 -0.59375 -0.484375 -1.015625q-0.328125 -0.4375 -0.8125 -0.671875q-0.46875 -0.234375 -1.109375 -0.234375l-0.6875 0zm6.5608215 4.96875q0 -0.875 0.25 -1.609375q0.25 -0.734375 0.734375 -1.265625q0.484375 -0.546875 1.171875 -0.859375q0.6875 -0.3125 1.578125 -0.3125q0.90625 0 1.59375 0.3125q0.703125 0.3125 1.171875 0.859375q0.484375 0.53125 0.734375 1.265625q0.25 0.734375 0.25 1.609375l0 0.15625q0 0.859375 -0.25 1.609375q-0.25 0.734375 -0.734375 1.28125q-0.46875 0.53125 -1.171875 0.84375q-0.6875 0.296875 -1.578125 0.296875q-0.890625 0 -1.59375 -0.296875q-0.6875 -0.3125 -1.171875 -0.84375q-0.484375 -0.546875 -0.734375 -1.28125q-0.25 -0.75 -0.25 -1.609375l0 -0.15625zm2.046875 0.15625q0 0.484375 0.09375 0.921875q0.09375 0.4375 0.296875 0.765625q0.203125 0.328125 0.53125 0.515625q0.328125 0.1875 0.78125 0.1875q0.453125 0 0.765625 -0.1875q0.328125 -0.1875 0.53125 -0.515625q0.203125 -0.328125 0.296875 -0.765625q0.09375 -0.4375 0.09375 -0.921875l0 -0.15625q0 -0.484375 -0.09375 -0.921875q-0.09375 -0.4375 -0.296875 -0.765625q-0.203125 -0.328125 -0.53125 -0.515625q-0.3125 -0.1875 -0.78125 -0.1875q-0.453125 0 -0.78125 0.1875q-0.3125 0.1875 -0.515625 0.515625q-0.203125 0.328125 -0.296875 0.765625q-0.09375 0.4375 -0.09375 0.921875l0 0.15625zm10.545166 2.390625q0.296875 0 0.5625 -0.078125q0.28125 -0.09375 0.484375 -0.25q0.203125 -0.171875 0.3125 -0.390625q0.109375 -0.234375 0.09375 -0.5l1.921875 0q0.015625 0.609375 -0.25 1.140625q-0.265625 0.515625 -0.734375 0.90625q-0.453125 0.375 -1.0625 0.59375q-0.609375 0.21875 -1.296875 0.21875q-0.921875 0 -1.625 -0.3125q-0.6875 -0.3125 -1.15625 -0.84375q-0.46875 -0.546875 -0.703125 -1.28125q-0.234375 -0.734375 -0.234375 -1.5625l0 -0.21875q0 -0.84375 0.234375 -1.5625q0.234375 -0.734375 0.703125 -1.265625q0.46875 -0.546875 1.15625 -0.859375q0.6875 -0.328125 1.609375 -0.328125q0.734375 0 1.359375 0.234375q0.625 0.21875 1.0625 0.625q0.453125 0.390625 0.703125 0.953125q0.25 0.5625 0.234375 1.265625l-1.921875 0q0.015625 -0.28125 -0.09375 -0.546875q-0.09375 -0.265625 -0.296875 -0.453125q-0.1875 -0.203125 -0.46875 -0.3125q-0.28125 -0.109375 -0.609375 -0.109375q-0.484375 0 -0.796875 0.203125q-0.3125 0.1875 -0.5 0.515625q-0.1875 0.328125 -0.265625 0.765625q-0.078125 0.421875 -0.078125 0.875l0 0.21875q0 0.453125 0.078125 0.890625q0.078125 0.421875 0.25 0.75q0.1875 0.328125 0.5 0.53125q0.328125 0.1875 0.828125 0.1875zm8.263947 -1.796875l-0.921875 0.859375l0 2.421875l-2.03125 0l0 -11.25l2.03125 0l0 6.4375l0.609375 -0.703125l2.1875 -2.40625l2.453125 0l-2.984375 3.296875l3.40625 4.625l-2.5 0l-2.25 -3.28125zm9.654541 3.421875q-0.90625 0 -1.65625 -0.296875q-0.75 -0.296875 -1.28125 -0.8125q-0.53125 -0.515625 -0.828125 -1.21875q-0.28125 -0.703125 -0.28125 -1.5l0 -0.296875q0 -0.90625 0.28125 -1.65625q0.28125 -0.75 0.796875 -1.28125q0.515625 -0.546875 1.21875 -0.84375q0.703125 -0.3125 1.53125 -0.3125q0.859375 0 1.515625 0.296875q0.671875 0.28125 1.140625 0.796875q0.46875 0.5 0.703125 1.21875q0.25 0.71875 0.25 1.59375l0 0.875l-5.375 0q0.046875 0.390625 0.21875 0.734375q0.1875 0.328125 0.46875 0.578125q0.28125 0.234375 0.640625 0.375q0.359375 0.125 0.78125 0.125q0.296875 0 0.59375 -0.0625q0.296875 -0.0625 0.5625 -0.171875q0.28125 -0.109375 0.515625 -0.28125q0.234375 -0.171875 0.40625 -0.390625l1.015625 1.09375q-0.1875 0.265625 -0.5 0.53125q-0.296875 0.265625 -0.71875 0.46875q-0.40625 0.1875 -0.90625 0.3125q-0.5 0.125 -1.09375 0.125zm-0.234375 -6.5625q-0.34375 0 -0.640625 0.125q-0.28125 0.109375 -0.5 0.34375q-0.21875 0.21875 -0.359375 0.546875q-0.140625 0.3125 -0.21875 0.703125l3.34375 0l0 -0.171875q-0.015625 -0.3125 -0.125 -0.59375q-0.109375 -0.296875 -0.3125 -0.5q-0.203125 -0.21875 -0.5 -0.328125q-0.296875 -0.125 -0.6875 -0.125zm10.873322 -1.65625q0.46875 0 0.859375 0.0625q0.390625 0.0625 0.625 0.140625l-0.296875 2.03125q-0.40625 -0.09375 -0.828125 -0.140625q-0.40625 -0.046875 -0.796875 -0.046875q-0.859375 0 -1.375 0.328125q-0.515625 0.328125 -0.765625 0.9375l0 4.765625l-2.03125 0l0 -7.921875l1.890625 0l0.09375 1.296875q0.484375 -0.671875 1.15625 -1.0625q0.671875 -0.390625 1.46875 -0.390625zm11.793488 8.078125l0 -10.671875l2.75 0q1.0625 0 1.921875 0.375q0.859375 0.359375 1.46875 1.015625q0.625 0.640625 0.953125 1.546875q0.328125 0.890625 0.328125 1.96875l0 0.875q0 1.078125 -0.328125 1.984375q-0.328125 0.890625 -0.9375 1.546875q-0.59375 0.640625 -1.4375 1.0q-0.84375 0.359375 -1.859375 0.359375l-2.859375 0zm2.0625 -9.0l0 7.34375l0.796875 0q0.578125 0 1.03125 -0.21875q0.46875 -0.21875 0.78125 -0.640625q0.3125 -0.421875 0.484375 -1.015625q0.171875 -0.59375 0.171875 -1.359375l0 -0.890625q0 -0.71875 -0.171875 -1.296875q-0.15625 -0.59375 -0.484375 -1.015625q-0.328125 -0.4375 -0.8125 -0.671875q-0.46875 -0.234375 -1.109375 -0.234375l-0.6875 0zm10.685791 9.140625q-0.90625 0 -1.65625 -0.296875q-0.75 -0.296875 -1.28125 -0.8125q-0.53125 -0.515625 -0.828125 -1.21875q-0.28125 -0.703125 -0.28125 -1.5l0 -0.296875q0 -0.90625 0.28125 -1.65625q0.28125 -0.75 0.796875 -1.28125q0.515625 -0.546875 1.21875 -0.84375q0.703125 -0.3125 1.53125 -0.3125q0.859375 0 1.515625 0.296875q0.671875 0.28125 1.140625 0.796875q0.46875 0.5 0.703125 1.21875q0.25 0.71875 0.25 1.59375l0 0.875l-5.375 0q0.046875 0.390625 0.21875 0.734375q0.1875 0.328125 0.46875 0.578125q0.28125 0.234375 0.640625 0.375q0.359375 0.125 0.78125 0.125q0.296875 0 0.59375 -0.0625q0.296875 -0.0625 0.5625 -0.171875q0.28125 -0.109375 0.515625 -0.28125q0.234375 -0.171875 0.40625 -0.390625l1.015625 1.09375q-0.1875 0.265625 -0.5 0.53125q-0.296875 0.265625 -0.71875 0.46875q-0.40625 0.1875 -0.90625 0.3125q-0.5 0.125 -1.09375 0.125zm-0.234375 -6.5625q-0.34375 0 -0.640625 0.125q-0.28125 0.109375 -0.5 0.34375q-0.21875 0.21875 -0.359375 0.546875q-0.140625 0.3125 -0.21875 0.703125l3.34375 0l0 -0.171875q-0.015625 -0.3125 -0.125 -0.59375q-0.109375 -0.296875 -0.3125 -0.5q-0.203125 -0.21875 -0.5 -0.328125q-0.296875 -0.125 -0.6875 -0.125zm10.138947 6.421875q-0.078125 -0.140625 -0.125 -0.328125q-0.046875 -0.203125 -0.09375 -0.40625q-0.15625 0.171875 -0.390625 0.34375q-0.21875 0.15625 -0.484375 0.28125q-0.265625 0.109375 -0.59375 0.171875q-0.3125 0.078125 -0.6875 0.078125q-0.609375 0 -1.125 -0.171875q-0.5 -0.171875 -0.875 -0.484375q-0.359375 -0.3125 -0.5625 -0.75q-0.203125 -0.4375 -0.203125 -0.953125q0 -1.25 0.921875 -1.9375q0.9375 -0.6875 2.796875 -0.6875l1.140625 0l0 -0.46875q0 -0.5625 -0.375 -0.890625q-0.375 -0.34375 -1.078125 -0.34375q-0.625 0 -0.921875 0.265625q-0.28125 0.265625 -0.28125 0.71875l-2.03125 0q0 -0.515625 0.21875 -0.96875q0.234375 -0.453125 0.65625 -0.796875q0.4375 -0.34375 1.046875 -0.546875q0.625 -0.203125 1.421875 -0.203125q0.71875 0 1.328125 0.1875q0.625 0.171875 1.078125 0.515625q0.453125 0.34375 0.703125 0.875q0.265625 0.515625 0.265625 1.203125l0 3.40625q0 0.625 0.078125 1.046875q0.078125 0.421875 0.234375 0.71875l0 0.125l-2.0625 0zm-1.9375 -1.421875q0.296875 0 0.5625 -0.078125q0.265625 -0.078125 0.46875 -0.1875q0.21875 -0.125 0.375 -0.265625q0.15625 -0.15625 0.25 -0.3125l0 -1.359375l-1.046875 0q-0.46875 0 -0.8125 0.09375q-0.328125 0.09375 -0.546875 0.265625q-0.21875 0.15625 -0.328125 0.390625q-0.09375 0.21875 -0.09375 0.5q0 0.40625 0.28125 0.6875q0.296875 0.265625 0.890625 0.265625zm7.0451965 -6.5l0.0625 0.953125q0.21875 -0.515625 0.625 -0.8125q0.40625 -0.296875 0.96875 -0.296875q0.96875 0 1.25 0.84375q0.234375 -0.390625 0.59375 -0.609375q0.375 -0.234375 0.890625 -0.234375q0.34375 0 0.65625 0.140625q0.3125 0.125 0.546875 0.421875q0.234375 0.28125 0.359375 0.75q0.125 0.453125 0.125 1.109375l0 5.65625l-1.84375 0l0 -5.65625q0 -0.234375 -0.046875 -0.375q-0.046875 -0.15625 -0.140625 -0.234375q-0.078125 -0.078125 -0.1875 -0.109375q-0.09375 -0.046875 -0.203125 -0.046875q-0.21875 0 -0.375 0.109375q-0.140625 0.09375 -0.21875 0.265625l0 6.046875l-1.796875 0l0 -5.671875q0 -0.21875 -0.046875 -0.359375q-0.03125 -0.15625 -0.109375 -0.234375q-0.078125 -0.078125 -0.1875 -0.109375q-0.09375 -0.046875 -0.21875 -0.046875q-0.234375 0 -0.375 0.140625q-0.140625 0.125 -0.21875 0.34375l0 5.9375l-1.8594055 0l0 -7.921875l1.7500305 0zm7.248291 3.890625q0 -0.875 0.25 -1.609375q0.25 -0.734375 0.734375 -1.265625q0.484375 -0.546875 1.171875 -0.859375q0.6875 -0.3125 1.578125 -0.3125q0.90625 0 1.59375 0.3125q0.703125 0.3125 1.171875 0.859375q0.484375 0.53125 0.734375 1.265625q0.25 0.734375 0.25 1.609375l0 0.15625q0 0.859375 -0.25 1.609375q-0.25 0.734375 -0.734375 1.28125q-0.46875 0.53125 -1.171875 0.84375q-0.6875 0.296875 -1.578125 0.296875q-0.890625 0 -1.59375 -0.296875q-0.6875 -0.3125 -1.171875 -0.84375q-0.484375 -0.546875 -0.734375 -1.28125q-0.25 -0.75 -0.25 -1.609375l0 -0.15625zm2.046875 0.15625q0 0.484375 0.09375 0.921875q0.09375 0.4375 0.296875 0.765625q0.203125 0.328125 0.53125 0.515625q0.328125 0.1875 0.78125 0.1875q0.453125 0 0.765625 -0.1875q0.328125 -0.1875 0.53125 -0.515625q0.203125 -0.328125 0.296875 -0.765625q0.09375 -0.4375 0.09375 -0.921875l0 -0.15625q0 -0.484375 -0.09375 -0.921875q-0.09375 -0.4375 -0.296875 -0.765625q-0.203125 -0.328125 -0.53125 -0.515625q-0.3125 -0.1875 -0.78125 -0.1875q-0.453125 0 -0.78125 0.1875q-0.3125 0.1875 -0.515625 0.515625q-0.203125 0.328125 -0.296875 0.765625q-0.09375 0.4375 -0.09375 0.921875l0 0.15625zm8.873291 -4.046875l0.125 1.09375q0.421875 -0.59375 1.03125 -0.921875q0.609375 -0.328125 1.359375 -0.328125q0.59375 0 1.09375 0.1875q0.5 0.171875 0.859375 0.5625q0.359375 0.375 0.5625 0.984375q0.203125 0.59375 0.203125 1.46875l0 4.875l-2.03125 0l0 -4.84375q0 -0.46875 -0.109375 -0.765625q-0.109375 -0.3125 -0.3125 -0.484375q-0.1875 -0.1875 -0.46875 -0.25q-0.28125 -0.078125 -0.625 -0.078125q-0.53125 0 -0.90625 0.21875q-0.359375 0.203125 -0.578125 0.578125l0 5.625l-2.046875 0l0 -7.921875l1.84375 0z" fill-rule="nonzero"></path><path fill="#000000" fill-opacity="0.0" d="m283.23096 320.7034l191.9685 0l0 54.236237l-191.9685 0z" fill-rule="evenodd"></path><path fill="#383838" d="m315.0569 341.54904l-3.203125 0l-0.625 2.234375l-2.171875 0l3.5 -10.671875l1.859375 0l3.4375 10.671875l-2.171875 0l-0.625 -2.234375zm-2.6875 -1.75l2.203125 0l-1.09375 -3.921875l-1.109375 3.921875zm8.763947 -6.6875l1.015625 4.015625l1.140625 -4.015625l2.5625 0l0 10.671875l-1.890625 0l0 -3.15625l0.09375 -4.984375l-1.40625 4.625l-1.015625 0l-1.25 -4.4375l0.078125 4.796875l0 3.15625l-1.875 0l0 -10.671875l2.546875 0zm6.232666 10.671875l0 -10.671875l2.75 0q1.0625 0 1.921875 0.375q0.859375 0.359375 1.46875 1.015625q0.625 0.640625 0.953125 1.546875q0.328125 0.890625 0.328125 1.96875l0 0.875q0 1.078125 -0.328125 1.984375q-0.328125 0.890625 -0.9375 1.546875q-0.59375 0.640625 -1.4375 1.0q-0.84375 0.359375 -1.859375 0.359375l-2.859375 0zm2.0625 -9.0l0 7.34375l0.796875 0q0.578125 0 1.03125 -0.21875q0.46875 -0.21875 0.78125 -0.640625q0.3125 -0.421875 0.484375 -1.015625q0.171875 -0.59375 0.171875 -1.359375l0 -0.890625q0 -0.71875 -0.171875 -1.296875q-0.15625 -0.59375 -0.484375 -1.015625q-0.328125 -0.4375 -0.8125 -0.671875q-0.46875 -0.234375 -1.109375 -0.234375l-0.6875 0zm19.184113 5.015625l-1.5625 0l0 3.984375l-2.0625 0l0 -10.671875l3.578125 0q0.890625 0 1.609375 0.21875q0.71875 0.203125 1.21875 0.609375q0.515625 0.40625 0.78125 1.015625q0.28125 0.59375 0.28125 1.375q0 0.578125 -0.140625 1.03125q-0.125 0.453125 -0.390625 0.828125q-0.25 0.359375 -0.609375 0.640625q-0.34375 0.265625 -0.78125 0.453125l2.296875 4.40625l0 0.09375l-2.21875 0l-2.0 -3.984375zm-1.5625 -1.671875l1.53125 0q0.859375 0 1.328125 -0.4375q0.484375 -0.453125 0.484375 -1.21875q0 -0.796875 -0.46875 -1.234375q-0.453125 -0.453125 -1.359375 -0.453125l-1.515625 0l0 3.34375zm14.185822 1.109375q0 1.03125 -0.28125 1.890625q-0.265625 0.859375 -0.78125 1.484375q-0.515625 0.625 -1.25 0.96875q-0.734375 0.34375 -1.65625 0.34375q-0.921875 0 -1.640625 -0.34375q-0.71875 -0.34375 -1.21875 -0.96875q-0.484375 -0.625 -0.734375 -1.484375q-0.25 -0.859375 -0.25 -1.890625l0 -1.546875q0 -1.03125 0.25 -1.890625q0.25 -0.875 0.734375 -1.5q0.5 -0.625 1.21875 -0.96875q0.71875 -0.359375 1.640625 -0.359375q0.921875 0 1.65625 0.359375q0.734375 0.34375 1.25 0.96875q0.515625 0.625 0.78125 1.5q0.28125 0.859375 0.28125 1.890625l0 1.546875zm-2.09375 -1.5625q0 -0.65625 -0.109375 -1.203125q-0.109375 -0.546875 -0.34375 -0.9375q-0.21875 -0.40625 -0.578125 -0.625q-0.34375 -0.234375 -0.84375 -0.234375q-0.5 0 -0.84375 0.234375q-0.328125 0.21875 -0.546875 0.625q-0.203125 0.390625 -0.296875 0.9375q-0.078125 0.546875 -0.078125 1.203125l0 1.5625q0 0.640625 0.078125 1.1875q0.09375 0.546875 0.296875 0.953125q0.21875 0.40625 0.546875 0.640625q0.34375 0.21875 0.84375 0.21875q0.5 0 0.84375 -0.21875q0.359375 -0.234375 0.578125 -0.625q0.234375 -0.40625 0.34375 -0.953125q0.109375 -0.546875 0.109375 -1.203125l0 -1.5625zm10.842041 2.765625q-0.046875 0.8125 -0.34375 1.453125q-0.296875 0.640625 -0.796875 1.09375q-0.5 0.453125 -1.1875 0.703125q-0.6875 0.25 -1.515625 0.25q-0.953125 0 -1.6875 -0.34375q-0.71875 -0.359375 -1.21875 -0.984375q-0.5 -0.625 -0.765625 -1.5q-0.265625 -0.875 -0.265625 -1.9375l0 -1.4375q0 -1.0625 0.28125 -1.9375q0.28125 -0.875 0.78125 -1.5q0.515625 -0.640625 1.25 -0.984375q0.734375 -0.34375 1.640625 -0.34375q0.875 0 1.5625 0.25q0.6875 0.25 1.15625 0.71875q0.484375 0.453125 0.765625 1.125q0.28125 0.65625 0.359375 1.484375l-2.046875 0q-0.03125 -0.46875 -0.15625 -0.828125q-0.109375 -0.359375 -0.328125 -0.59375q-0.21875 -0.25 -0.546875 -0.359375q-0.3125 -0.125 -0.765625 -0.125q-0.484375 0 -0.84375 0.203125q-0.34375 0.203125 -0.578125 0.609375q-0.21875 0.390625 -0.328125 0.96875q-0.109375 0.5625 -0.109375 1.296875l0 1.453125q0 1.578125 0.4375 2.328125q0.4375 0.75 1.40625 0.75q0.796875 0 1.265625 -0.421875q0.46875 -0.421875 0.53125 -1.390625l2.046875 0zm2.7326965 -4.578125l0.0625 0.953125q0.21875 -0.515625 0.625 -0.8125q0.40625 -0.296875 0.96875 -0.296875q0.96875 0 1.25 0.84375q0.234375 -0.390625 0.59375 -0.609375q0.375 -0.234375 0.890625 -0.234375q0.34375 0 0.65625 0.140625q0.3125 0.125 0.546875 0.421875q0.234375 0.28125 0.359375 0.75q0.125 0.453125 0.125 1.109375l0 5.65625l-1.84375 0l0 -5.65625q0 -0.234375 -0.046875 -0.375q-0.046875 -0.15625 -0.140625 -0.234375q-0.078125 -0.078125 -0.1875 -0.109375q-0.09375 -0.046875 -0.203125 -0.046875q-0.21875 0 -0.375 0.109375q-0.140625 0.09375 -0.21875 0.265625l0 6.046875l-1.796875 0l0 -5.671875q0 -0.21875 -0.046875 -0.359375q-0.03125 -0.15625 -0.109375 -0.234375q-0.078125 -0.078125 -0.1875 -0.109375q-0.09375 -0.046875 -0.21875 -0.046875q-0.234375 0 -0.375 0.140625q-0.140625 0.125 -0.21875 0.34375l0 5.9375l-1.859375 0l0 -7.921875l1.75 0zm16.121613 3.90625q0 -0.90625 0.203125 -1.65625q0.203125 -0.75 0.609375 -1.28125q0.40625 -0.53125 0.96875 -0.828125q0.578125 -0.296875 1.328125 -0.296875q0.625 0 1.09375 0.234375q0.46875 0.21875 0.828125 0.625l0 -4.03125l2.046875 0l0 11.25l-1.828125 0l-0.109375 -0.828125q-0.375 0.46875 -0.890625 0.71875q-0.5 0.25 -1.15625 0.25q-0.734375 0 -1.3125 -0.296875q-0.5625 -0.3125 -0.96875 -0.84375q-0.390625 -0.53125 -0.609375 -1.265625q-0.203125 -0.734375 -0.203125 -1.609375l0 -0.140625zm2.03125 0.140625q0 0.5 0.078125 0.9375q0.09375 0.421875 0.28125 0.75q0.1875 0.3125 0.484375 0.5q0.296875 0.171875 0.734375 0.171875q0.53125 0 0.875 -0.21875q0.34375 -0.234375 0.546875 -0.625l0 -3.203125q-0.203125 -0.40625 -0.546875 -0.625q-0.34375 -0.234375 -0.859375 -0.234375q-0.4375 0 -0.75 0.1875q-0.296875 0.1875 -0.484375 0.515625q-0.1875 0.328125 -0.28125 0.765625q-0.078125 0.4375 -0.078125 0.9375l0 0.140625zm12.654541 -4.203125q0.46875 0 0.859375 0.0625q0.390625 0.0625 0.625 0.140625l-0.296875 2.03125q-0.40625 -0.09375 -0.828125 -0.140625q-0.40625 -0.046875 -0.796875 -0.046875q-0.859375 0 -1.375 0.328125q-0.515625 0.328125 -0.765625 0.9375l0 4.765625l-2.03125 0l0 -7.921875l1.890625 0l0.09375 1.296875q0.484375 -0.671875 1.15625 -1.0625q0.671875 -0.390625 1.46875 -0.390625zm3.6545715 0.15625l4.3125 0l0 6.265625l2.140625 0l0 1.65625l-6.453125 0l0 -1.65625l2.25 0l0 -4.609375l-2.25 0l0 -1.65625zm2.109375 -2.03125q0 -0.234375 0.078125 -0.4375q0.09375 -0.203125 0.234375 -0.34375q0.15625 -0.140625 0.375 -0.21875q0.21875 -0.078125 0.484375 -0.078125q0.53125 0 0.84375 0.296875q0.328125 0.296875 0.328125 0.78125q0 0.46875 -0.328125 0.78125q-0.3125 0.296875 -0.84375 0.296875q-0.265625 0 -0.484375 -0.078125q-0.21875 -0.078125 -0.375 -0.21875q-0.140625 -0.140625 -0.234375 -0.34375q-0.078125 -0.203125 -0.078125 -0.4375zm9.513916 7.609375l0.09375 0.5625l0.109375 -0.546875l1.734375 -5.59375l2.125 0l-3.0 7.921875l-1.921875 0l-3.015625 -7.921875l2.125 0l1.75 5.578125zm9.263947 2.484375q-0.90625 0 -1.65625 -0.296875q-0.75 -0.296875 -1.28125 -0.8125q-0.53125 -0.515625 -0.828125 -1.21875q-0.28125 -0.703125 -0.28125 -1.5l0 -0.296875q0 -0.90625 0.28125 -1.65625q0.28125 -0.75 0.796875 -1.28125q0.515625 -0.546875 1.21875 -0.84375q0.703125 -0.3125 1.53125 -0.3125q0.859375 0 1.515625 0.296875q0.671875 0.28125 1.140625 0.796875q0.46875 0.5 0.703125 1.21875q0.25 0.71875 0.25 1.59375l0 0.875l-5.375 0q0.046875 0.390625 0.21875 0.734375q0.1875 0.328125 0.46875 0.578125q0.28125 0.234375 0.640625 0.375q0.359375 0.125 0.78125 0.125q0.296875 0 0.59375 -0.0625q0.296875 -0.0625 0.5625 -0.171875q0.28125 -0.109375 0.515625 -0.28125q0.234375 -0.171875 0.40625 -0.390625l1.015625 1.09375q-0.1875 0.265625 -0.5 0.53125q-0.296875 0.265625 -0.71875 0.46875q-0.40625 0.1875 -0.90625 0.3125q-0.5 0.125 -1.09375 0.125zm-0.234375 -6.5625q-0.34375 0 -0.640625 0.125q-0.28125 0.109375 -0.5 0.34375q-0.21875 0.21875 -0.359375 0.546875q-0.140625 0.3125 -0.21875 0.703125l3.34375 0l0 -0.171875q-0.015625 -0.3125 -0.125 -0.59375q-0.109375 -0.296875 -0.3125 -0.5q-0.203125 -0.21875 -0.5 -0.328125q-0.296875 -0.125 -0.6875 -0.125zm10.873291 -1.65625q0.46875 0 0.859375 0.0625q0.390625 0.0625 0.625 0.140625l-0.296875 2.03125q-0.40625 -0.09375 -0.828125 -0.140625q-0.40625 -0.046875 -0.796875 -0.046875q-0.859375 0 -1.375 0.328125q-0.515625 0.328125 -0.765625 0.9375l0 4.765625l-2.03125 0l0 -7.921875l1.890625 0l0.09375 1.296875q0.484375 -0.671875 1.15625 -1.0625q0.671875 -0.390625 1.46875 -0.390625zm8.217072 5.90625q0 -0.1875 -0.078125 -0.328125q-0.078125 -0.140625 -0.296875 -0.25q-0.21875 -0.125 -0.578125 -0.21875q-0.359375 -0.109375 -0.90625 -0.21875q-0.703125 -0.140625 -1.28125 -0.34375q-0.5625 -0.21875 -0.984375 -0.515625q-0.40625 -0.296875 -0.640625 -0.671875q-0.21875 -0.390625 -0.21875 -0.90625q0 -0.484375 0.234375 -0.921875q0.234375 -0.453125 0.671875 -0.78125q0.4375 -0.34375 1.0625 -0.546875q0.625 -0.203125 1.421875 -0.203125q0.828125 0 1.484375 0.203125q0.65625 0.1875 1.109375 0.53125q0.46875 0.34375 0.703125 0.8125q0.25 0.46875 0.25 1.015625l-2.03125 0q0 -0.46875 -0.375 -0.765625q-0.375 -0.3125 -1.140625 -0.3125q-0.703125 0 -1.078125 0.25q-0.359375 0.25 -0.359375 0.625q0 0.1875 0.078125 0.34375q0.078125 0.140625 0.265625 0.265625q0.1875 0.109375 0.5 0.21875q0.328125 0.09375 0.828125 0.171875q0.71875 0.109375 1.328125 0.296875q0.609375 0.1875 1.0625 0.484375q0.453125 0.28125 0.703125 0.703125q0.25 0.40625 0.25 0.96875q0 0.53125 -0.25 0.984375q-0.25 0.4375 -0.71875 0.765625q-0.46875 0.3125 -1.125 0.5q-0.65625 0.171875 -1.46875 0.171875q-0.90625 0 -1.59375 -0.234375q-0.671875 -0.234375 -1.140625 -0.609375q-0.453125 -0.375 -0.703125 -0.859375q-0.234375 -0.484375 -0.234375 -0.96875l1.9375 0q0.03125 0.328125 0.1875 0.5625q0.15625 0.21875 0.390625 0.375q0.234375 0.140625 0.546875 0.203125q0.3125 0.0625 0.640625 0.0625q0.765625 0 1.15625 -0.234375q0.390625 -0.25 0.390625 -0.625z" fill-rule="nonzero"></path><path fill="#37474f" d="m381.3152 389.00507l0 0c-7.5487366 0 -13.668182 -6.119446 -13.668182 -13.668182l0 0c0 -3.6250305 1.440033 -7.101593 4.003296 -9.664886c2.5632935 -2.563263 6.039856 -4.003296 9.664886 -4.003296l0 0c7.5487366 0 13.668182 6.119446 13.668182 13.668182l0 0c0 7.5487366 -6.119446 13.668182 -13.668182 13.668182z" fill-rule="evenodd"></path><path fill="#ffffff" d="m379.93384 389.0052l0 -14.995941l-2.920227 0l4.2957153 -5.7536926l4.2957153 5.7536926l-2.920227 0l0 14.995941z" fill-rule="evenodd"></path><path fill="#f7cb4d" d="m405.78656 119.97727l100.78491 0l0 0c5.773987 0 11.311462 2.2937012 15.394287 6.3765182c4.0828247 4.0828094 6.376526 9.6203 6.376526 15.394287l0 124.06604c0 5.79834E-4 -4.272461E-4 0.0010375977 -0.0010375977 0.0010375977l-100.783905 -0.0010375977c-12.023682 0 -21.770782 -9.747131 -21.770782 -21.770798l0 -124.06605l0 0c0 -5.645752E-4 4.5776367E-4 -0.0010223389 0.0010070801 -0.0010223389z" fill-rule="evenodd"></path><path fill="#000000" fill-opacity="0.0" d="m405.7874 142.50876l122.38556 0l0 42.73088l-122.38556 0z" fill-rule="evenodd"></path><path fill="#383838" d="m441.5165 165.58876l0 -10.671875l2.75 0q1.0625 0 1.921875 0.375q0.859375 0.359375 1.46875 1.015625q0.625 0.640625 0.953125 1.546875q0.328125 0.890625 0.328125 1.96875l0 0.875q0 1.078125 -0.328125 1.984375q-0.328125 0.890625 -0.9375 1.546875q-0.59375 0.640625 -1.4375 1.0q-0.84375 0.359375 -1.859375 0.359375l-2.859375 0zm2.0625 -9.0l0 7.34375l0.796875 0q0.578125 0 1.03125 -0.21875q0.46875 -0.21875 0.78125 -0.640625q0.3125 -0.421875 0.484375 -1.015625q0.171875 -0.59375 0.171875 -1.359375l0 -0.890625q0 -0.71875 -0.171875 -1.296875q-0.15625 -0.59375 -0.484375 -1.015625q-0.328125 -0.4375 -0.8125 -0.671875q-0.46875 -0.234375 -1.109375 -0.234375l-0.6875 0zm6.5608215 4.96875q0 -0.875 0.25 -1.609375q0.25 -0.734375 0.734375 -1.265625q0.484375 -0.546875 1.171875 -0.859375q0.6875 -0.3125 1.578125 -0.3125q0.90625 0 1.59375 0.3125q0.703125 0.3125 1.171875 0.859375q0.484375 0.53125 0.734375 1.265625q0.25 0.734375 0.25 1.609375l0 0.15625q0 0.859375 -0.25 1.609375q-0.25 0.734375 -0.734375 1.28125q-0.46875 0.53125 -1.171875 0.84375q-0.6875 0.296875 -1.578125 0.296875q-0.890625 0 -1.59375 -0.296875q-0.6875 -0.3125 -1.171875 -0.84375q-0.484375 -0.546875 -0.734375 -1.28125q-0.25 -0.75 -0.25 -1.609375l0 -0.15625zm2.046875 0.15625q0 0.484375 0.09375 0.921875q0.09375 0.4375 0.296875 0.765625q0.203125 0.328125 0.53125 0.515625q0.328125 0.1875 0.78125 0.1875q0.453125 0 0.765625 -0.1875q0.328125 -0.1875 0.53125 -0.515625q0.203125 -0.328125 0.296875 -0.765625q0.09375 -0.4375 0.09375 -0.921875l0 -0.15625q0 -0.484375 -0.09375 -0.921875q-0.09375 -0.4375 -0.296875 -0.765625q-0.203125 -0.328125 -0.53125 -0.515625q-0.3125 -0.1875 -0.78125 -0.1875q-0.453125 0 -0.78125 0.1875q-0.3125 0.1875 -0.515625 0.515625q-0.203125 0.328125 -0.296875 0.765625q-0.09375 0.4375 -0.09375 0.921875l0 0.15625zm10.545166 2.390625q0.296875 0 0.5625 -0.078125q0.28125 -0.09375 0.484375 -0.25q0.203125 -0.171875 0.3125 -0.390625q0.109375 -0.234375 0.09375 -0.5l1.921875 0q0.015625 0.609375 -0.25 1.140625q-0.265625 0.515625 -0.734375 0.90625q-0.453125 0.375 -1.0625 0.59375q-0.609375 0.21875 -1.296875 0.21875q-0.921875 0 -1.625 -0.3125q-0.6875 -0.3125 -1.15625 -0.84375q-0.46875 -0.546875 -0.703125 -1.28125q-0.234375 -0.734375 -0.234375 -1.5625l0 -0.21875q0 -0.84375 0.234375 -1.5625q0.234375 -0.734375 0.703125 -1.265625q0.46875 -0.546875 1.15625 -0.859375q0.6875 -0.328125 1.609375 -0.328125q0.734375 0 1.359375 0.234375q0.625 0.21875 1.0625 0.625q0.453125 0.390625 0.703125 0.953125q0.25 0.5625 0.234375 1.265625l-1.921875 0q0.015625 -0.28125 -0.09375 -0.546875q-0.09375 -0.265625 -0.296875 -0.453125q-0.1875 -0.203125 -0.46875 -0.3125q-0.28125 -0.109375 -0.609375 -0.109375q-0.484375 0 -0.796875 0.203125q-0.3125 0.1875 -0.5 0.515625q-0.1875 0.328125 -0.265625 0.765625q-0.078125 0.421875 -0.078125 0.875l0 0.21875q0 0.453125 0.078125 0.890625q0.078125 0.421875 0.25 0.75q0.1875 0.328125 0.5 0.53125q0.328125 0.1875 0.828125 0.1875zm8.263947 -1.796875l-0.921875 0.859375l0 2.421875l-2.03125 0l0 -11.25l2.03125 0l0 6.4375l0.609375 -0.703125l2.1875 -2.40625l2.453125 0l-2.984375 3.296875l3.40625 4.625l-2.5 0l-2.25 -3.28125zm9.654541 3.421875q-0.90625 0 -1.65625 -0.296875q-0.75 -0.296875 -1.28125 -0.8125q-0.53125 -0.515625 -0.828125 -1.21875q-0.28125 -0.703125 -0.28125 -1.5l0 -0.296875q0 -0.90625 0.28125 -1.65625q0.28125 -0.75 0.796875 -1.28125q0.515625 -0.546875 1.21875 -0.84375q0.703125 -0.3125 1.53125 -0.3125q0.859375 0 1.515625 0.296875q0.671875 0.28125 1.140625 0.796875q0.46875 0.5 0.703125 1.21875q0.25 0.71875 0.25 1.59375l0 0.875l-5.375 0q0.046875 0.390625 0.21875 0.734375q0.1875 0.328125 0.46875 0.578125q0.28125 0.234375 0.640625 0.375q0.359375 0.125 0.78125 0.125q0.296875 0 0.59375 -0.0625q0.296875 -0.0625 0.5625 -0.171875q0.28125 -0.109375 0.515625 -0.28125q0.234375 -0.171875 0.40625 -0.390625l1.015625 1.09375q-0.1875 0.265625 -0.5 0.53125q-0.296875 0.265625 -0.71875 0.46875q-0.40625 0.1875 -0.90625 0.3125q-0.5 0.125 -1.09375 0.125zm-0.234375 -6.5625q-0.34375 0 -0.640625 0.125q-0.28125 0.109375 -0.5 0.34375q-0.21875 0.21875 -0.359375 0.546875q-0.140625 0.3125 -0.21875 0.703125l3.34375 0l0 -0.171875q-0.015625 -0.3125 -0.125 -0.59375q-0.109375 -0.296875 -0.3125 -0.5q-0.203125 -0.21875 -0.5 -0.328125q-0.296875 -0.125 -0.6875 -0.125zm10.873322 -1.65625q0.46875 0 0.859375 0.0625q0.390625 0.0625 0.625 0.140625l-0.296875 2.03125q-0.40625 -0.09375 -0.828125 -0.140625q-0.40625 -0.046875 -0.796875 -0.046875q-0.859375 0 -1.375 0.328125q-0.515625 0.328125 -0.765625 0.9375l0 4.765625l-2.03125 0l0 -7.921875l1.890625 0l0.09375 1.296875q0.484375 -0.671875 1.15625 -1.0625q0.671875 -0.390625 1.46875 -0.390625z" fill-rule="nonzero"></path><path fill="#383838" d="m435.76126 180.24501q-0.046875 0.8125 -0.34375 1.453125q-0.296875 0.640625 -0.796875 1.09375q-0.5 0.453125 -1.1875 0.703125q-0.6875 0.25 -1.515625 0.25q-0.953125 0 -1.6875 -0.34375q-0.71875 -0.359375 -1.21875 -0.984375q-0.5 -0.625 -0.765625 -1.5q-0.265625 -0.875 -0.265625 -1.9375l0 -1.4375q0 -1.0625 0.28125 -1.9375q0.28125 -0.875 0.78125 -1.5q0.515625 -0.640625 1.25 -0.984375q0.734375 -0.34375 1.640625 -0.34375q0.875 0 1.5625 0.25q0.6875 0.25 1.15625 0.71875q0.484375 0.453125 0.765625 1.125q0.28125 0.65625 0.359375 1.484375l-2.046875 0q-0.03125 -0.46875 -0.15625 -0.828125q-0.109375 -0.359375 -0.328125 -0.59375q-0.21875 -0.25 -0.546875 -0.359375q-0.3125 -0.125 -0.765625 -0.125q-0.484375 0 -0.84375 0.203125q-0.34375 0.203125 -0.578125 0.609375q-0.21875 0.390625 -0.328125 0.96875q-0.109375 0.5625 -0.109375 1.296875l0 1.453125q0 1.578125 0.4375 2.328125q0.4375 0.75 1.40625 0.75q0.796875 0 1.265625 -0.421875q0.46875 -0.421875 0.53125 -1.390625l2.046875 0zm1.185791 -0.6875q0 -0.875 0.25 -1.609375q0.25 -0.734375 0.734375 -1.265625q0.484375 -0.546875 1.171875 -0.859375q0.6875 -0.3125 1.578125 -0.3125q0.90625 0 1.59375 0.3125q0.703125 0.3125 1.171875 0.859375q0.484375 0.53125 0.734375 1.265625q0.25 0.734375 0.25 1.609375l0 0.15625q0 0.859375 -0.25 1.609375q-0.25 0.734375 -0.734375 1.28125q-0.46875 0.53125 -1.171875 0.84375q-0.6875 0.296875 -1.578125 0.296875q-0.890625 0 -1.59375 -0.296875q-0.6875 -0.3125 -1.171875 -0.84375q-0.484375 -0.546875 -0.734375 -1.28125q-0.25 -0.75 -0.25 -1.609375l0 -0.15625zm2.046875 0.15625q0 0.484375 0.09375 0.921875q0.09375 0.4375 0.296875 0.765625q0.203125 0.328125 0.53125 0.515625q0.328125 0.1875 0.78125 0.1875q0.453125 0 0.765625 -0.1875q0.328125 -0.1875 0.53125 -0.515625q0.203125 -0.328125 0.296875 -0.765625q0.09375 -0.4375 0.09375 -0.921875l0 -0.15625q0 -0.484375 -0.09375 -0.921875q-0.09375 -0.4375 -0.296875 -0.765625q-0.203125 -0.328125 -0.53125 -0.515625q-0.3125 -0.1875 -0.78125 -0.1875q-0.453125 0 -0.78125 0.1875q-0.3125 0.1875 -0.515625 0.515625q-0.203125 0.328125 -0.296875 0.765625q-0.09375 0.4375 -0.09375 0.921875l0 0.15625zm8.873322 -4.046875l0.125 1.09375q0.421875 -0.59375 1.03125 -0.921875q0.609375 -0.328125 1.359375 -0.328125q0.59375 0 1.09375 0.1875q0.5 0.171875 0.859375 0.5625q0.359375 0.375 0.5625 0.984375q0.203125 0.59375 0.203125 1.46875l0 4.875l-2.03125 0l0 -4.84375q0 -0.46875 -0.109375 -0.765625q-0.109375 -0.3125 -0.3125 -0.484375q-0.1875 -0.1875 -0.46875 -0.25q-0.28125 -0.078125 -0.625 -0.078125q-0.53125 0 -0.90625 0.21875q-0.359375 0.203125 -0.578125 0.578125l0 5.625l-2.046875 0l0 -7.921875l1.84375 0zm10.685791 -1.9375l0 1.9375l2.96875 0l0 1.5l-2.96875 0l0 3.40625q0 0.4375 0.09375 0.734375q0.109375 0.28125 0.28125 0.453125q0.1875 0.171875 0.453125 0.25q0.265625 0.0625 0.578125 0.0625q0.234375 0 0.484375 -0.015625q0.25 -0.03125 0.46875 -0.0625q0.21875 -0.03125 0.40625 -0.0625q0.203125 -0.046875 0.34375 -0.078125l0.203125 1.390625q-0.21875 0.125 -0.515625 0.21875q-0.28125 0.09375 -0.609375 0.15625q-0.3125 0.0625 -0.65625 0.09375q-0.34375 0.03125 -0.6875 0.03125q-0.65625 0 -1.1875 -0.171875q-0.53125 -0.171875 -0.90625 -0.53125q-0.375 -0.375 -0.578125 -0.921875q-0.203125 -0.5625 -0.203125 -1.34375l0 -3.609375l-1.8125 0l0 -1.5l1.8125 0l0 -1.9375l2.03125 0zm10.013947 9.859375q-0.078125 -0.140625 -0.125 -0.328125q-0.046875 -0.203125 -0.09375 -0.40625q-0.15625 0.171875 -0.390625 0.34375q-0.21875 0.15625 -0.484375 0.28125q-0.265625 0.109375 -0.59375 0.171875q-0.3125 0.078125 -0.6875 0.078125q-0.609375 0 -1.125 -0.171875q-0.5 -0.171875 -0.875 -0.484375q-0.359375 -0.3125 -0.5625 -0.75q-0.203125 -0.4375 -0.203125 -0.953125q0 -1.25 0.921875 -1.9375q0.9375 -0.6875 2.796875 -0.6875l1.140625 0l0 -0.46875q0 -0.5625 -0.375 -0.890625q-0.375 -0.34375 -1.078125 -0.34375q-0.625 0 -0.921875 0.265625q-0.28125 0.265625 -0.28125 0.71875l-2.03125 0q0 -0.515625 0.21875 -0.96875q0.234375 -0.453125 0.65625 -0.796875q0.4375 -0.34375 1.046875 -0.546875q0.625 -0.203125 1.421875 -0.203125q0.71875 0 1.328125 0.1875q0.625 0.171875 1.078125 0.515625q0.453125 0.34375 0.703125 0.875q0.265625 0.515625 0.265625 1.203125l0 3.40625q0 0.625 0.078125 1.046875q0.078125 0.421875 0.234375 0.71875l0 0.125l-2.0625 0zm-1.9375 -1.421875q0.296875 0 0.5625 -0.078125q0.265625 -0.078125 0.46875 -0.1875q0.21875 -0.125 0.375 -0.265625q0.15625 -0.15625 0.25 -0.3125l0 -1.359375l-1.046875 0q-0.46875 0 -0.8125 0.09375q-0.328125 0.09375 -0.546875 0.265625q-0.21875 0.15625 -0.328125 0.390625q-0.09375 0.21875 -0.09375 0.5q0 0.40625 0.28125 0.6875q0.296875 0.265625 0.890625 0.265625zm6.326416 -6.5l4.3125 0l0 6.265625l2.140625 0l0 1.65625l-6.453125 0l0 -1.65625l2.25 0l0 -4.609375l-2.25 0l0 -1.65625zm2.109375 -2.03125q0 -0.234375 0.078125 -0.4375q0.09375 -0.203125 0.234375 -0.34375q0.15625 -0.140625 0.375 -0.21875q0.21875 -0.078125 0.484375 -0.078125q0.53125 0 0.84375 0.296875q0.328125 0.296875 0.328125 0.78125q0 0.46875 -0.328125 0.78125q-0.3125 0.296875 -0.84375 0.296875q-0.265625 0 -0.484375 -0.078125q-0.21875 -0.078125 -0.375 -0.21875q-0.140625 -0.140625 -0.234375 -0.34375q-0.078125 -0.203125 -0.078125 -0.4375zm7.9826965 2.03125l0.125 1.09375q0.421875 -0.59375 1.03125 -0.921875q0.609375 -0.328125 1.359375 -0.328125q0.59375 0 1.09375 0.1875q0.5 0.171875 0.859375 0.5625q0.359375 0.375 0.5625 0.984375q0.203125 0.59375 0.203125 1.46875l0 4.875l-2.03125 0l0 -4.84375q0 -0.46875 -0.109375 -0.765625q-0.109375 -0.3125 -0.3125 -0.484375q-0.1875 -0.1875 -0.46875 -0.25q-0.28125 -0.078125 -0.625 -0.078125q-0.53125 0 -0.90625 0.21875q-0.359375 0.203125 -0.578125 0.578125l0 5.625l-2.046875 0l0 -7.921875l1.84375 0zm10.795166 8.0625q-0.90625 0 -1.65625 -0.296875q-0.75 -0.296875 -1.28125 -0.8125q-0.53125 -0.515625 -0.828125 -1.21875q-0.28125 -0.703125 -0.28125 -1.5l0 -0.296875q0 -0.90625 0.28125 -1.65625q0.28125 -0.75 0.796875 -1.28125q0.515625 -0.546875 1.21875 -0.84375q0.703125 -0.3125 1.53125 -0.3125q0.859375 0 1.515625 0.296875q0.671875 0.28125 1.140625 0.796875q0.46875 0.5 0.703125 1.21875q0.25 0.71875 0.25 1.59375l0 0.875l-5.375 0q0.046875 0.390625 0.21875 0.734375q0.1875 0.328125 0.46875 0.578125q0.28125 0.234375 0.640625 0.375q0.359375 0.125 0.78125 0.125q0.296875 0 0.59375 -0.0625q0.296875 -0.0625 0.5625 -0.171875q0.28125 -0.109375 0.515625 -0.28125q0.234375 -0.171875 0.40625 -0.390625l1.015625 1.09375q-0.1875 0.265625 -0.5 0.53125q-0.296875 0.265625 -0.71875 0.46875q-0.40625 0.1875 -0.90625 0.3125q-0.5 0.125 -1.09375 0.125zm-0.234375 -6.5625q-0.34375 0 -0.640625 0.125q-0.28125 0.109375 -0.5 0.34375q-0.21875 0.21875 -0.359375 0.546875q-0.140625 0.3125 -0.21875 0.703125l3.34375 0l0 -0.171875q-0.015625 -0.3125 -0.125 -0.59375q-0.109375 -0.296875 -0.3125 -0.5q-0.203125 -0.21875 -0.5 -0.328125q-0.296875 -0.125 -0.6875 -0.125zm10.873322 -1.65625q0.46875 0 0.859375 0.0625q0.390625 0.0625 0.625 0.140625l-0.296875 2.03125q-0.40625 -0.09375 -0.828125 -0.140625q-0.40625 -0.046875 -0.796875 -0.046875q-0.859375 0 -1.375 0.328125q-0.515625 0.328125 -0.765625 0.9375l0 4.765625l-2.03125 0l0 -7.921875l1.890625 0l0.09375 1.296875q0.484375 -0.671875 1.15625 -1.0625q0.671875 -0.390625 1.46875 -0.390625z" fill-rule="nonzero"></path><path fill="#000000" fill-opacity="0.0" d="m419.9519 185.24678l91.491394 0l0 47.60881l-91.491394 0z" fill-rule="evenodd"></path><path fill="#383838" d="m433.53003 201.8424l2.296875 -4.1875l1.59375 0l-3.09375 5.296875l3.171875 5.375l-1.578125 0l-2.359375 -4.265625l-2.375 4.265625l-1.59375 0l3.171875 -5.375l-3.09375 -5.296875l1.59375 0l2.265625 4.1875zm6.982666 -4.1875l1.734375 5.34375l1.875 -5.34375l1.6875 0l0 10.671875l-1.328125 0l0 -4.25l0.109375 -4.453125l-1.96875 5.734375l-0.765625 0l-1.8125 -5.59375l0.109375 4.3125l0 4.25l-1.328125 0l0 -10.671875l1.6875 0zm10.842072 6.328125l-2.140625 0l0 4.34375l-1.34375 0l0 -10.671875l3.125 0q0.75 0.015625 1.40625 0.21875q0.65625 0.203125 1.140625 0.59375q0.5 0.390625 0.78125 1.0q0.296875 0.59375 0.296875 1.390625q0 0.53125 -0.15625 0.96875q-0.15625 0.421875 -0.421875 0.78125q-0.25 0.34375 -0.625 0.625q-0.359375 0.265625 -0.796875 0.453125l2.25 4.546875l0 0.09375l-1.421875 0l-2.09375 -4.34375zm-2.140625 -1.125l1.8125 0q0.453125 0 0.859375 -0.140625q0.40625 -0.140625 0.703125 -0.390625q0.3125 -0.25 0.484375 -0.625q0.171875 -0.375 0.171875 -0.859375q0 -0.5 -0.171875 -0.890625q-0.15625 -0.390625 -0.46875 -0.640625q-0.296875 -0.265625 -0.71875 -0.390625q-0.40625 -0.140625 -0.890625 -0.140625l-1.78125 0l0 4.078125zm13.326416 1.359375l-5.609375 0l0 -1.109375l5.609375 0l0 1.109375zm8.458588 1.40625q0 -0.484375 -0.234375 -0.8125q-0.21875 -0.34375 -0.578125 -0.578125q-0.34375 -0.234375 -0.765625 -0.375q-0.421875 -0.15625 -0.8125 -0.28125q-0.5625 -0.1875 -1.140625 -0.4375q-0.578125 -0.265625 -1.0625 -0.640625q-0.484375 -0.375 -0.796875 -0.875q-0.296875 -0.515625 -0.296875 -1.203125q0 -0.6875 0.296875 -1.21875q0.3125 -0.546875 0.796875 -0.921875q0.5 -0.375 1.125 -0.5625q0.625 -0.203125 1.25 -0.203125q0.703125 0 1.34375 0.234375q0.640625 0.234375 1.140625 0.65625q0.5 0.40625 0.796875 1.0q0.296875 0.59375 0.3125 1.328125l-1.390625 0q-0.046875 -0.46875 -0.21875 -0.84375q-0.171875 -0.375 -0.453125 -0.640625q-0.28125 -0.28125 -0.671875 -0.421875q-0.375 -0.15625 -0.859375 -0.15625q-0.390625 0 -0.765625 0.109375q-0.359375 0.109375 -0.65625 0.328125q-0.28125 0.21875 -0.453125 0.546875q-0.171875 0.328125 -0.171875 0.75q0 0.453125 0.21875 0.78125q0.234375 0.3125 0.578125 0.53125q0.359375 0.21875 0.765625 0.375q0.40625 0.140625 0.765625 0.25q0.390625 0.125 0.796875 0.28125q0.40625 0.15625 0.78125 0.359375q0.375 0.203125 0.6875 0.46875q0.328125 0.25 0.5625 0.578125q0.25 0.328125 0.375 0.71875q0.140625 0.390625 0.140625 0.875q0 0.703125 -0.328125 1.25q-0.3125 0.53125 -0.8125 0.890625q-0.5 0.34375 -1.140625 0.53125q-0.640625 0.171875 -1.28125 0.171875q-0.703125 0 -1.390625 -0.21875q-0.671875 -0.21875 -1.21875 -0.625q-0.53125 -0.421875 -0.875 -1.015625q-0.328125 -0.59375 -0.359375 -1.359375l1.390625 0q0.0625 0.5 0.265625 0.890625q0.203125 0.375 0.53125 0.640625q0.328125 0.265625 0.75 0.40625q0.421875 0.140625 0.90625 0.140625q0.40625 0 0.78125 -0.09375q0.390625 -0.109375 0.6875 -0.3125q0.296875 -0.21875 0.484375 -0.53125q0.203125 -0.3125 0.203125 -0.765625zm6.4201965 -7.140625l0 1.921875l3.015625 0l0 1.046875l-3.015625 0l0 4.296875q0 0.46875 0.109375 0.765625q0.125 0.296875 0.328125 0.484375q0.203125 0.171875 0.46875 0.25q0.265625 0.078125 0.578125 0.078125q0.21875 0 0.453125 -0.03125q0.234375 -0.03125 0.453125 -0.0625q0.21875 -0.03125 0.40625 -0.0625q0.203125 -0.046875 0.328125 -0.078125l0.1875 0.953125q-0.171875 0.109375 -0.40625 0.1875q-0.234375 0.078125 -0.53125 0.125q-0.28125 0.0625 -0.609375 0.078125q-0.3125 0.03125 -0.625 0.03125q-0.53125 0 -0.984375 -0.140625q-0.453125 -0.15625 -0.796875 -0.484375q-0.328125 -0.328125 -0.53125 -0.84375q-0.1875 -0.515625 -0.1875 -1.25l0 -4.296875l-2.078125 0l0 -1.046875l2.078125 0l0 -1.921875l1.359375 0zm10.795166 9.84375q-0.078125 -0.15625 -0.125 -0.375q-0.046875 -0.234375 -0.078125 -0.484375q-0.203125 0.203125 -0.453125 0.390625q-0.25 0.171875 -0.5625 0.3125q-0.296875 0.140625 -0.640625 0.21875q-0.34375 0.078125 -0.734375 0.078125q-0.625 0 -1.140625 -0.171875q-0.515625 -0.1875 -0.875 -0.5q-0.34375 -0.3125 -0.546875 -0.734375q-0.1875 -0.4375 -0.1875 -0.9375q0 -0.640625 0.25 -1.125q0.265625 -0.5 0.734375 -0.828125q0.484375 -0.328125 1.15625 -0.484375q0.671875 -0.171875 1.5 -0.171875l1.484375 0l0 -0.609375q0 -0.359375 -0.140625 -0.640625q-0.125 -0.296875 -0.375 -0.5q-0.234375 -0.203125 -0.59375 -0.3125q-0.34375 -0.109375 -0.765625 -0.109375q-0.40625 0 -0.734375 0.109375q-0.3125 0.09375 -0.53125 0.265625q-0.21875 0.171875 -0.34375 0.40625q-0.109375 0.21875 -0.109375 0.46875l-1.375 0q0.015625 -0.421875 0.234375 -0.84375q0.21875 -0.421875 0.625 -0.75q0.40625 -0.328125 0.984375 -0.53125q0.578125 -0.21875 1.3125 -0.21875q0.6875 0 1.265625 0.171875q0.578125 0.171875 1.0 0.5q0.421875 0.328125 0.65625 0.828125q0.25 0.5 0.25 1.171875l0 3.671875q0 0.40625 0.0625 0.84375q0.078125 0.4375 0.203125 0.765625l0 0.125l-1.40625 0zm-2.390625 -1.03125q0.390625 0 0.734375 -0.09375q0.34375 -0.109375 0.625 -0.28125q0.28125 -0.171875 0.484375 -0.375q0.203125 -0.21875 0.328125 -0.453125l0 -1.609375l-1.265625 0q-1.1875 0 -1.84375 0.359375q-0.65625 0.34375 -0.65625 1.09375q0 0.296875 0.09375 0.546875q0.109375 0.25 0.296875 0.4375q0.203125 0.171875 0.5 0.28125q0.296875 0.09375 0.703125 0.09375zm8.342072 -2.671875l-0.984375 0.96875l0 2.734375l-1.359375 0l0 -11.25l1.359375 0l0 6.890625l0.875 -0.953125l2.609375 -2.609375l1.640625 0l-3.203125 3.296875l3.703125 4.625l-1.71875 0l-2.921875 -3.703125z" fill-rule="nonzero"></path><path fill="#37474f" d="m344.50677 280.25967l0 0c-7.5487366 0 -13.668182 -6.1194763 -13.668182 -13.668213l0 0c0 -3.6250305 1.440033 -7.1015625 4.0033264 -9.664856c2.563263 -2.5632782 6.0398254 -4.0033264 9.664856 -4.0033264l0 0c7.5487366 0 13.668182 6.1194763 13.668182 13.668182l0 0c0 7.5487366 -6.119446 13.668213 -13.668182 13.668213z" fill-rule="evenodd"></path><path fill="#ffffff" d="m343.12543 280.25977l0 -14.995941l-2.920227 0l4.2957153 -5.753662l4.2957153 5.753662l-2.920227 0l0 14.995941z" fill-rule="evenodd"></path><path fill="#37474f" d="m479.33224 280.25967l0 0c-7.5487366 0 -13.668182 -6.1194763 -13.668182 -13.668213l0 0c0 -3.6250305 1.440033 -7.1015625 4.003296 -9.664856c2.5632935 -2.5632782 6.039856 -4.0033264 9.664886 -4.0033264l0 0c7.5487366 0 13.668182 6.1194763 13.668182 13.668182l0 0c0 7.5487366 -6.119446 13.668213 -13.668182 13.668213z" fill-rule="evenodd"></path><path fill="#ffffff" d="m477.9509 280.25977l0 -14.995941l-2.920227 0l4.2957153 -5.753662l4.2957153 5.753662l-2.920227 0l0 14.995941z" fill-rule="evenodd"></path><path fill="#c9daf8" d="m528.3414 120.55643l121.64447 0l0 0c6.8707886 0 13.460205 2.7294235 18.318604 7.5878296c4.8583984 4.8583984 7.5878296 11.447815 7.5878296 18.318634l0 119.93039c0 6.713867E-4 -5.493164E-4 0.0012207031 -0.0012207031 0.0012207031l-121.64325 -0.0012207031c-14.307739 0 -25.906433 -11.598709 -25.906433 -25.906464l0 -119.93039l0 0c0 -6.790161E-4 5.493164E-4 -0.0012283325 0.0012207031 -0.0012283325z" fill-rule="evenodd"></path><path fill="#c9daf8" d="m528.3412 143.08923l147.53204 0l0 42.730865l-147.53204 0z" fill-rule="evenodd"></path><path fill="#383838" d="m576.64355 166.16924l0 -10.671875l2.75 0q1.0625 0 1.921875 0.375q0.859375 0.359375 1.46875 1.015625q0.625 0.640625 0.953125 1.546875q0.328125 0.890625 0.328125 1.96875l0 0.875q0 1.078125 -0.328125 1.984375q-0.328125 0.890625 -0.9375 1.546875q-0.59375 0.640625 -1.4375 1.0q-0.84375 0.359375 -1.859375 0.359375l-2.859375 0zm2.0625 -9.0l0 7.34375l0.796875 0q0.578125 0 1.03125 -0.21875q0.46875 -0.21875 0.78125 -0.640625q0.3125 -0.421875 0.484375 -1.015625q0.171875 -0.59375 0.171875 -1.359375l0 -0.890625q0 -0.71875 -0.171875 -1.296875q-0.15625 -0.59375 -0.484375 -1.015625q-0.328125 -0.4375 -0.8125 -0.671875q-0.46875 -0.234375 -1.109375 -0.234375l-0.6875 0zm6.560791 4.96875q0 -0.875 0.25 -1.609375q0.25 -0.734375 0.734375 -1.265625q0.484375 -0.546875 1.171875 -0.859375q0.6875 -0.3125 1.578125 -0.3125q0.90625 0 1.59375 0.3125q0.703125 0.3125 1.171875 0.859375q0.484375 0.53125 0.734375 1.265625q0.25 0.734375 0.25 1.609375l0 0.15625q0 0.859375 -0.25 1.609375q-0.25 0.734375 -0.734375 1.28125q-0.46875 0.53125 -1.171875 0.84375q-0.6875 0.296875 -1.578125 0.296875q-0.890625 0 -1.59375 -0.296875q-0.6875 -0.3125 -1.171875 -0.84375q-0.484375 -0.546875 -0.734375 -1.28125q-0.25 -0.75 -0.25 -1.609375l0 -0.15625zm2.046875 0.15625q0 0.484375 0.09375 0.921875q0.09375 0.4375 0.296875 0.765625q0.203125 0.328125 0.53125 0.515625q0.328125 0.1875 0.78125 0.1875q0.453125 0 0.765625 -0.1875q0.328125 -0.1875 0.53125 -0.515625q0.203125 -0.328125 0.296875 -0.765625q0.09375 -0.4375 0.09375 -0.921875l0 -0.15625q0 -0.484375 -0.09375 -0.921875q-0.09375 -0.4375 -0.296875 -0.765625q-0.203125 -0.328125 -0.53125 -0.515625q-0.3125 -0.1875 -0.78125 -0.1875q-0.453125 0 -0.78125 0.1875q-0.3125 0.1875 -0.515625 0.515625q-0.203125 0.328125 -0.296875 0.765625q-0.09375 0.4375 -0.09375 0.921875l0 0.15625zm10.545166 2.390625q0.296875 0 0.5625 -0.078125q0.28125 -0.09375 0.484375 -0.25q0.203125 -0.171875 0.3125 -0.390625q0.109375 -0.234375 0.09375 -0.5l1.921875 0q0.015625 0.609375 -0.25 1.140625q-0.265625 0.515625 -0.734375 0.90625q-0.453125 0.375 -1.0625 0.59375q-0.609375 0.21875 -1.296875 0.21875q-0.921875 0 -1.625 -0.3125q-0.6875 -0.3125 -1.15625 -0.84375q-0.46875 -0.546875 -0.703125 -1.28125q-0.234375 -0.734375 -0.234375 -1.5625l0 -0.21875q0 -0.84375 0.234375 -1.5625q0.234375 -0.734375 0.703125 -1.265625q0.46875 -0.546875 1.15625 -0.859375q0.6875 -0.328125 1.609375 -0.328125q0.734375 0 1.359375 0.234375q0.625 0.21875 1.0625 0.625q0.453125 0.390625 0.703125 0.953125q0.25 0.5625 0.234375 1.265625l-1.921875 0q0.015625 -0.28125 -0.09375 -0.546875q-0.09375 -0.265625 -0.296875 -0.453125q-0.1875 -0.203125 -0.46875 -0.3125q-0.28125 -0.109375 -0.609375 -0.109375q-0.484375 0 -0.796875 0.203125q-0.3125 0.1875 -0.5 0.515625q-0.1875 0.328125 -0.265625 0.765625q-0.078125 0.421875 -0.078125 0.875l0 0.21875q0 0.453125 0.078125 0.890625q0.078125 0.421875 0.25 0.75q0.1875 0.328125 0.5 0.53125q0.328125 0.1875 0.828125 0.1875zm8.263916 -1.796875l-0.921875 0.859375l0 2.421875l-2.03125 0l0 -11.25l2.03125 0l0 6.4375l0.609375 -0.703125l2.1875 -2.40625l2.453125 0l-2.984375 3.296875l3.40625 4.625l-2.5 0l-2.25 -3.28125zm9.654602 3.421875q-0.90625 0 -1.65625 -0.296875q-0.75 -0.296875 -1.28125 -0.8125q-0.53125 -0.515625 -0.828125 -1.21875q-0.28125 -0.703125 -0.28125 -1.5l0 -0.296875q0 -0.90625 0.28125 -1.65625q0.28125 -0.75 0.796875 -1.28125q0.515625 -0.546875 1.21875 -0.84375q0.703125 -0.3125 1.53125 -0.3125q0.859375 0 1.515625 0.296875q0.671875 0.28125 1.140625 0.796875q0.46875 0.5 0.703125 1.21875q0.25 0.71875 0.25 1.59375l0 0.875l-5.375 0q0.046875 0.390625 0.21875 0.734375q0.1875 0.328125 0.46875 0.578125q0.28125 0.234375 0.640625 0.375q0.359375 0.125 0.78125 0.125q0.296875 0 0.59375 -0.0625q0.296875 -0.0625 0.5625 -0.171875q0.28125 -0.109375 0.515625 -0.28125q0.234375 -0.171875 0.40625 -0.390625l1.015625 1.09375q-0.1875 0.265625 -0.5 0.53125q-0.296875 0.265625 -0.71875 0.46875q-0.40625 0.1875 -0.90625 0.3125q-0.5 0.125 -1.09375 0.125zm-0.234375 -6.5625q-0.34375 0 -0.640625 0.125q-0.28125 0.109375 -0.5 0.34375q-0.21875 0.21875 -0.359375 0.546875q-0.140625 0.3125 -0.21875 0.703125l3.34375 0l0 -0.171875q-0.015625 -0.3125 -0.125 -0.59375q-0.109375 -0.296875 -0.3125 -0.5q-0.203125 -0.21875 -0.5 -0.328125q-0.296875 -0.125 -0.6875 -0.125zm10.873291 -1.65625q0.46875 0 0.859375 0.0625q0.390625 0.0625 0.625 0.140625l-0.296875 2.03125q-0.40625 -0.09375 -0.828125 -0.140625q-0.40625 -0.046875 -0.796875 -0.046875q-0.859375 0 -1.375 0.328125q-0.515625 0.328125 -0.765625 0.9375l0 4.765625l-2.03125 0l0 -7.921875l1.890625 0l0.09375 1.296875q0.484375 -0.671875 1.15625 -1.0625q0.671875 -0.390625 1.46875 -0.390625z" fill-rule="nonzero"></path><path fill="#383838" d="m570.88824 180.82549q-0.046875 0.8125 -0.34375 1.453125q-0.296875 0.640625 -0.796875 1.09375q-0.5 0.453125 -1.1875 0.703125q-0.6875 0.25 -1.515625 0.25q-0.953125 0 -1.6875 -0.34375q-0.71875 -0.359375 -1.21875 -0.984375q-0.5 -0.625 -0.765625 -1.5q-0.265625 -0.875 -0.265625 -1.9375l0 -1.4375q0 -1.0625 0.28125 -1.9375q0.28125 -0.875 0.78125 -1.5q0.515625 -0.640625 1.25 -0.984375q0.734375 -0.34375 1.640625 -0.34375q0.875 0 1.5625 0.25q0.6875 0.25 1.15625 0.71875q0.484375 0.453125 0.765625 1.125q0.28125 0.65625 0.359375 1.484375l-2.046875 0q-0.03125 -0.46875 -0.15625 -0.828125q-0.109375 -0.359375 -0.328125 -0.59375q-0.21875 -0.25 -0.546875 -0.359375q-0.3125 -0.125 -0.765625 -0.125q-0.484375 0 -0.84375 0.203125q-0.34375 0.203125 -0.578125 0.609375q-0.21875 0.390625 -0.328125 0.96875q-0.109375 0.5625 -0.109375 1.296875l0 1.453125q0 1.578125 0.4375 2.328125q0.4375 0.75 1.40625 0.75q0.796875 0 1.265625 -0.421875q0.46875 -0.421875 0.53125 -1.390625l2.046875 0zm1.185852 -0.6875q0 -0.875 0.25 -1.609375q0.25 -0.734375 0.734375 -1.265625q0.484375 -0.546875 1.171875 -0.859375q0.6875 -0.3125 1.578125 -0.3125q0.90625 0 1.59375 0.3125q0.703125 0.3125 1.171875 0.859375q0.484375 0.53125 0.734375 1.265625q0.25 0.734375 0.25 1.609375l0 0.15625q0 0.859375 -0.25 1.609375q-0.25 0.734375 -0.734375 1.28125q-0.46875 0.53125 -1.171875 0.84375q-0.6875 0.296875 -1.578125 0.296875q-0.890625 0 -1.59375 -0.296875q-0.6875 -0.3125 -1.171875 -0.84375q-0.484375 -0.546875 -0.734375 -1.28125q-0.25 -0.75 -0.25 -1.609375l0 -0.15625zm2.046875 0.15625q0 0.484375 0.09375 0.921875q0.09375 0.4375 0.296875 0.765625q0.203125 0.328125 0.53125 0.515625q0.328125 0.1875 0.78125 0.1875q0.453125 0 0.765625 -0.1875q0.328125 -0.1875 0.53125 -0.515625q0.203125 -0.328125 0.296875 -0.765625q0.09375 -0.4375 0.09375 -0.921875l0 -0.15625q0 -0.484375 -0.09375 -0.921875q-0.09375 -0.4375 -0.296875 -0.765625q-0.203125 -0.328125 -0.53125 -0.515625q-0.3125 -0.1875 -0.78125 -0.1875q-0.453125 0 -0.78125 0.1875q-0.3125 0.1875 -0.515625 0.515625q-0.203125 0.328125 -0.296875 0.765625q-0.09375 0.4375 -0.09375 0.921875l0 0.15625zm8.873291 -4.046875l0.125 1.09375q0.421875 -0.59375 1.03125 -0.921875q0.609375 -0.328125 1.359375 -0.328125q0.59375 0 1.09375 0.1875q0.5 0.171875 0.859375 0.5625q0.359375 0.375 0.5625 0.984375q0.203125 0.59375 0.203125 1.46875l0 4.875l-2.03125 0l0 -4.84375q0 -0.46875 -0.109375 -0.765625q-0.109375 -0.3125 -0.3125 -0.484375q-0.1875 -0.1875 -0.46875 -0.25q-0.28125 -0.078125 -0.625 -0.078125q-0.53125 0 -0.90625 0.21875q-0.359375 0.203125 -0.578125 0.578125l0 5.625l-2.046875 0l0 -7.921875l1.84375 0zm10.685791 -1.9375l0 1.9375l2.96875 0l0 1.5l-2.96875 0l0 3.40625q0 0.4375 0.09375 0.734375q0.109375 0.28125 0.28125 0.453125q0.1875 0.171875 0.453125 0.25q0.265625 0.0625 0.578125 0.0625q0.234375 0 0.484375 -0.015625q0.25 -0.03125 0.46875 -0.0625q0.21875 -0.03125 0.40625 -0.0625q0.203125 -0.046875 0.34375 -0.078125l0.203125 1.390625q-0.21875 0.125 -0.515625 0.21875q-0.28125 0.09375 -0.609375 0.15625q-0.3125 0.0625 -0.65625 0.09375q-0.34375 0.03125 -0.6875 0.03125q-0.65625 0 -1.1875 -0.171875q-0.53125 -0.171875 -0.90625 -0.53125q-0.375 -0.375 -0.578125 -0.921875q-0.203125 -0.5625 -0.203125 -1.34375l0 -3.609375l-1.8125 0l0 -1.5l1.8125 0l0 -1.9375l2.03125 0zm10.013916 9.859375q-0.078125 -0.140625 -0.125 -0.328125q-0.046875 -0.203125 -0.09375 -0.40625q-0.15625 0.171875 -0.390625 0.34375q-0.21875 0.15625 -0.484375 0.28125q-0.265625 0.109375 -0.59375 0.171875q-0.3125 0.078125 -0.6875 0.078125q-0.609375 0 -1.125 -0.171875q-0.5 -0.171875 -0.875 -0.484375q-0.359375 -0.3125 -0.5625 -0.75q-0.203125 -0.4375 -0.203125 -0.953125q0 -1.25 0.921875 -1.9375q0.9375 -0.6875 2.796875 -0.6875l1.140625 0l0 -0.46875q0 -0.5625 -0.375 -0.890625q-0.375 -0.34375 -1.078125 -0.34375q-0.625 0 -0.921875 0.265625q-0.28125 0.265625 -0.28125 0.71875l-2.03125 0q0 -0.515625 0.21875 -0.96875q0.234375 -0.453125 0.65625 -0.796875q0.4375 -0.34375 1.046875 -0.546875q0.625 -0.203125 1.421875 -0.203125q0.71875 0 1.328125 0.1875q0.625 0.171875 1.078125 0.515625q0.453125 0.34375 0.703125 0.875q0.265625 0.515625 0.265625 1.203125l0 3.40625q0 0.625 0.078125 1.046875q0.078125 0.421875 0.234375 0.71875l0 0.125l-2.0625 0zm-1.9375 -1.421875q0.296875 0 0.5625 -0.078125q0.265625 -0.078125 0.46875 -0.1875q0.21875 -0.125 0.375 -0.265625q0.15625 -0.15625 0.25 -0.3125l0 -1.359375l-1.046875 0q-0.46875 0 -0.8125 0.09375q-0.328125 0.09375 -0.546875 0.265625q-0.21875 0.15625 -0.328125 0.390625q-0.09375 0.21875 -0.09375 0.5q0 0.40625 0.28125 0.6875q0.296875 0.265625 0.890625 0.265625zm6.326477 -6.5l4.3125 0l0 6.265625l2.140625 0l0 1.65625l-6.453125 0l0 -1.65625l2.25 0l0 -4.609375l-2.25 0l0 -1.65625zm2.109375 -2.03125q0 -0.234375 0.078125 -0.4375q0.09375 -0.203125 0.234375 -0.34375q0.15625 -0.140625 0.375 -0.21875q0.21875 -0.078125 0.484375 -0.078125q0.53125 0 0.84375 0.296875q0.328125 0.296875 0.328125 0.78125q0 0.46875 -0.328125 0.78125q-0.3125 0.296875 -0.84375 0.296875q-0.265625 0 -0.484375 -0.078125q-0.21875 -0.078125 -0.375 -0.21875q-0.140625 -0.140625 -0.234375 -0.34375q-0.078125 -0.203125 -0.078125 -0.4375zm7.982666 2.03125l0.125 1.09375q0.421875 -0.59375 1.03125 -0.921875q0.609375 -0.328125 1.359375 -0.328125q0.59375 0 1.09375 0.1875q0.5 0.171875 0.859375 0.5625q0.359375 0.375 0.5625 0.984375q0.203125 0.59375 0.203125 1.46875l0 4.875l-2.03125 0l0 -4.84375q0 -0.46875 -0.109375 -0.765625q-0.109375 -0.3125 -0.3125 -0.484375q-0.1875 -0.1875 -0.46875 -0.25q-0.28125 -0.078125 -0.625 -0.078125q-0.53125 0 -0.90625 0.21875q-0.359375 0.203125 -0.578125 0.578125l0 5.625l-2.046875 0l0 -7.921875l1.84375 0zm10.795166 8.0625q-0.90625 0 -1.65625 -0.296875q-0.75 -0.296875 -1.28125 -0.8125q-0.53125 -0.515625 -0.828125 -1.21875q-0.28125 -0.703125 -0.28125 -1.5l0 -0.296875q0 -0.90625 0.28125 -1.65625q0.28125 -0.75 0.796875 -1.28125q0.515625 -0.546875 1.21875 -0.84375q0.703125 -0.3125 1.53125 -0.3125q0.859375 0 1.515625 0.296875q0.671875 0.28125 1.140625 0.796875q0.46875 0.5 0.703125 1.21875q0.25 0.71875 0.25 1.59375l0 0.875l-5.375 0q0.046875 0.390625 0.21875 0.734375q0.1875 0.328125 0.46875 0.578125q0.28125 0.234375 0.640625 0.375q0.359375 0.125 0.78125 0.125q0.296875 0 0.59375 -0.0625q0.296875 -0.0625 0.5625 -0.171875q0.28125 -0.109375 0.515625 -0.28125q0.234375 -0.171875 0.40625 -0.390625l1.015625 1.09375q-0.1875 0.265625 -0.5 0.53125q-0.296875 0.265625 -0.71875 0.46875q-0.40625 0.1875 -0.90625 0.3125q-0.5 0.125 -1.09375 0.125zm-0.234375 -6.5625q-0.34375 0 -0.640625 0.125q-0.28125 0.109375 -0.5 0.34375q-0.21875 0.21875 -0.359375 0.546875q-0.140625 0.3125 -0.21875 0.703125l3.34375 0l0 -0.171875q-0.015625 -0.3125 -0.125 -0.59375q-0.109375 -0.296875 -0.3125 -0.5q-0.203125 -0.21875 -0.5 -0.328125q-0.296875 -0.125 -0.6875 -0.125zm10.873291 -1.65625q0.46875 0 0.859375 0.0625q0.390625 0.0625 0.625 0.140625l-0.296875 2.03125q-0.40625 -0.09375 -0.828125 -0.140625q-0.40625 -0.046875 -0.796875 -0.046875q-0.859375 0 -1.375 0.328125q-0.515625 0.328125 -0.765625 0.9375l0 4.765625l-2.03125 0l0 -7.921875l1.890625 0l0.09375 1.296875q0.484375 -0.671875 1.15625 -1.0625q0.671875 -0.390625 1.46875 -0.390625z" fill-rule="nonzero"></path><path fill="#c9daf8" d="m528.3254 185.82677l147.5509 0l0 47.608826l-147.5509 0z" fill-rule="evenodd"></path><path fill="#383838" d="m564.9843 206.20364q0 -0.484375 -0.234375 -0.8125q-0.21875 -0.34375 -0.578125 -0.578125q-0.34375 -0.234375 -0.765625 -0.375q-0.421875 -0.15625 -0.8125 -0.28125q-0.5625 -0.1875 -1.140625 -0.4375q-0.578125 -0.265625 -1.0625 -0.640625q-0.484375 -0.375 -0.796875 -0.875q-0.296875 -0.515625 -0.296875 -1.203125q0 -0.6875 0.296875 -1.21875q0.3125 -0.546875 0.796875 -0.921875q0.5 -0.375 1.125 -0.5625q0.625 -0.203125 1.25 -0.203125q0.703125 0 1.34375 0.234375q0.640625 0.234375 1.140625 0.65625q0.5 0.40625 0.796875 1.0q0.296875 0.59375 0.3125 1.328125l-1.390625 0q-0.046875 -0.46875 -0.21875 -0.84375q-0.171875 -0.375 -0.453125 -0.640625q-0.28125 -0.28125 -0.671875 -0.421875q-0.375 -0.15625 -0.859375 -0.15625q-0.390625 0 -0.765625 0.109375q-0.359375 0.109375 -0.65625 0.328125q-0.28125 0.21875 -0.453125 0.546875q-0.171875 0.328125 -0.171875 0.75q0 0.453125 0.21875 0.78125q0.234375 0.3125 0.578125 0.53125q0.359375 0.21875 0.765625 0.375q0.40625 0.140625 0.765625 0.25q0.390625 0.125 0.796875 0.28125q0.40625 0.15625 0.78125 0.359375q0.375 0.203125 0.6875 0.46875q0.328125 0.25 0.5625 0.578125q0.25 0.328125 0.375 0.71875q0.140625 0.390625 0.140625 0.875q0 0.703125 -0.328125 1.25q-0.3125 0.53125 -0.8125 0.890625q-0.5 0.34375 -1.140625 0.53125q-0.640625 0.171875 -1.28125 0.171875q-0.703125 0 -1.390625 -0.21875q-0.671875 -0.21875 -1.21875 -0.625q-0.53125 -0.421875 -0.875 -1.015625q-0.328125 -0.59375 -0.359375 -1.359375l1.390625 0q0.0625 0.5 0.265625 0.890625q0.203125 0.375 0.53125 0.640625q0.328125 0.265625 0.75 0.40625q0.421875 0.140625 0.90625 0.140625q0.40625 0 0.78125 -0.09375q0.390625 -0.109375 0.6875 -0.3125q0.296875 -0.21875 0.484375 -0.53125q0.203125 -0.3125 0.203125 -0.765625zm8.357666 1.609375q-0.40625 0.59375 -1.0 0.921875q-0.59375 0.3125 -1.359375 0.3125q-0.625 0 -1.140625 -0.1875q-0.5 -0.1875 -0.859375 -0.59375q-0.359375 -0.421875 -0.5625 -1.046875q-0.1875 -0.640625 -0.1875 -1.53125l0 -4.703125l1.359375 0l0 4.71875q0 0.640625 0.09375 1.078125q0.109375 0.421875 0.3125 0.671875q0.203125 0.25 0.5 0.359375q0.296875 0.09375 0.6875 0.09375q0.828125 0 1.328125 -0.328125q0.515625 -0.34375 0.765625 -0.90625l0 -5.6875l1.375 0l0 7.921875l-1.234375 0l-0.078125 -1.09375zm10.342102 -2.78125q0 0.84375 -0.21875 1.59375q-0.203125 0.734375 -0.59375 1.28125q-0.390625 0.53125 -0.984375 0.84375q-0.578125 0.296875 -1.328125 0.296875q-0.71875 0 -1.28125 -0.234375q-0.546875 -0.234375 -0.9375 -0.671875l0 3.8125l-1.359375 0l0 -10.96875l1.234375 0l0.078125 0.859375q0.390625 -0.484375 0.953125 -0.75q0.5625 -0.265625 1.296875 -0.265625q0.765625 0 1.34375 0.3125q0.59375 0.296875 0.984375 0.828125q0.390625 0.53125 0.59375 1.28125q0.21875 0.734375 0.21875 1.625l0 0.15625zm-1.359375 -0.15625q0 -0.578125 -0.140625 -1.09375q-0.125 -0.53125 -0.390625 -0.921875q-0.265625 -0.40625 -0.671875 -0.640625q-0.40625 -0.234375 -0.984375 -0.234375q-0.65625 0 -1.09375 0.3125q-0.4375 0.296875 -0.703125 0.765625l0 3.828125q0.265625 0.46875 0.703125 0.765625q0.4375 0.296875 1.109375 0.296875q0.5625 0 0.96875 -0.234375q0.421875 -0.25 0.671875 -0.640625q0.265625 -0.40625 0.390625 -0.9375q0.140625 -0.53125 0.140625 -1.109375l0 -0.15625zm6.967041 4.171875q-0.84375 0 -1.546875 -0.28125q-0.6875 -0.28125 -1.1875 -0.796875q-0.5 -0.515625 -0.78125 -1.21875q-0.28125 -0.703125 -0.28125 -1.53125l0 -0.296875q0 -0.96875 0.3125 -1.71875q0.3125 -0.765625 0.8125 -1.28125q0.515625 -0.53125 1.15625 -0.8125q0.65625 -0.28125 1.328125 -0.28125q0.859375 0 1.5 0.296875q0.640625 0.296875 1.0625 0.828125q0.4375 0.515625 0.640625 1.234375q0.203125 0.703125 0.203125 1.53125l0 0.609375l-5.65625 0q0.015625 0.546875 0.203125 1.03125q0.1875 0.46875 0.515625 0.828125q0.328125 0.34375 0.78125 0.5625q0.453125 0.203125 1.0 0.203125q0.734375 0 1.296875 -0.296875q0.5625 -0.296875 0.9375 -0.78125l0.828125 0.640625q-0.203125 0.3125 -0.5 0.59375q-0.296875 0.265625 -0.6875 0.484375q-0.390625 0.203125 -0.875 0.328125q-0.484375 0.125 -1.0625 0.125zm-0.1875 -7.09375q-0.40625 0 -0.78125 0.15625q-0.359375 0.140625 -0.65625 0.4375q-0.28125 0.28125 -0.484375 0.703125q-0.203125 0.421875 -0.28125 0.96875l4.265625 0l0 -0.109375q-0.03125 -0.390625 -0.15625 -0.78125q-0.125 -0.390625 -0.375 -0.6875q-0.25 -0.3125 -0.625 -0.5q-0.375 -0.1875 -0.90625 -0.1875zm10.670166 -1.125q0.1875 0 0.390625 0.015625q0.203125 0.015625 0.390625 0.046875q0.1875 0.015625 0.34375 0.0625q0.15625 0.03125 0.265625 0.078125l-0.1875 1.3125q-0.390625 -0.078125 -0.75 -0.109375q-0.359375 -0.046875 -0.734375 -0.046875q-0.953125 0 -1.546875 0.4375q-0.59375 0.421875 -0.875 1.203125l0 5.078125l-1.359375 0l0 -7.921875l1.296875 0l0.0625 1.25q0.484375 -0.640625 1.15625 -1.015625q0.6875 -0.390625 1.546875 -0.390625zm6.701416 6.125l0.125 0.5l0.140625 -0.5l2.21875 -5.96875l1.375 0l-3.21875 7.921875l-1.03125 0l-3.265625 -7.921875l1.390625 0l2.265625 5.96875zm5.904602 -5.96875l4.046875 0l0 6.75l2.59375 0l0 1.171875l-6.640625 0l0 -1.171875l2.703125 0l0 -5.578125l-2.703125 0l0 -1.171875zm2.515625 -2.078125q0 -0.34375 0.203125 -0.5625q0.203125 -0.234375 0.609375 -0.234375q0.40625 0 0.609375 0.234375q0.203125 0.21875 0.203125 0.5625q0 0.328125 -0.203125 0.546875q-0.203125 0.21875 -0.609375 0.21875q-0.40625 0 -0.609375 -0.21875q-0.203125 -0.21875 -0.203125 -0.546875zm11.342041 7.890625q0 -0.234375 -0.109375 -0.421875q-0.09375 -0.203125 -0.328125 -0.359375q-0.21875 -0.15625 -0.59375 -0.296875q-0.359375 -0.140625 -0.921875 -0.25q-0.6875 -0.140625 -1.25 -0.328125q-0.546875 -0.203125 -0.953125 -0.46875q-0.390625 -0.28125 -0.625 -0.65625q-0.21875 -0.375 -0.21875 -0.859375q0 -0.484375 0.21875 -0.90625q0.234375 -0.421875 0.640625 -0.734375q0.421875 -0.3125 0.984375 -0.5q0.578125 -0.1875 1.25 -0.1875q0.734375 0 1.3125 0.203125q0.59375 0.1875 1.0 0.53125q0.421875 0.328125 0.640625 0.78125q0.21875 0.453125 0.21875 0.96875l-1.359375 0q0 -0.265625 -0.125 -0.5q-0.125 -0.25 -0.359375 -0.4375q-0.234375 -0.1875 -0.578125 -0.296875q-0.328125 -0.125 -0.75 -0.125q-0.421875 0 -0.75 0.09375q-0.328125 0.09375 -0.546875 0.25q-0.21875 0.15625 -0.328125 0.375q-0.109375 0.21875 -0.109375 0.4375q0 0.234375 0.078125 0.421875q0.09375 0.1875 0.3125 0.328125q0.21875 0.140625 0.578125 0.265625q0.359375 0.109375 0.921875 0.21875q0.734375 0.15625 1.3125 0.359375q0.578125 0.203125 0.96875 0.484375q0.40625 0.28125 0.609375 0.65625q0.203125 0.375 0.203125 0.859375q0 0.53125 -0.234375 0.96875q-0.234375 0.421875 -0.671875 0.734375q-0.421875 0.3125 -1.015625 0.484375q-0.578125 0.15625 -1.28125 0.15625q-0.8125 0 -1.453125 -0.203125q-0.625 -0.21875 -1.0625 -0.578125q-0.421875 -0.359375 -0.65625 -0.828125q-0.234375 -0.46875 -0.234375 -0.96875l1.359375 0q0.03125 0.421875 0.21875 0.703125q0.1875 0.28125 0.484375 0.46875q0.296875 0.171875 0.640625 0.25q0.359375 0.0625 0.703125 0.0625q0.84375 0 1.34375 -0.3125q0.5 -0.3125 0.515625 -0.84375zm3.138916 -1.921875q0 -0.859375 0.25 -1.59375q0.25 -0.734375 0.71875 -1.28125q0.46875 -0.546875 1.125 -0.859375q0.671875 -0.3125 1.5 -0.3125q0.84375 0 1.515625 0.3125q0.671875 0.3125 1.140625 0.859375q0.46875 0.546875 0.703125 1.28125q0.25 0.734375 0.25 1.59375l0 0.15625q0 0.859375 -0.25 1.59375q-0.234375 0.734375 -0.703125 1.28125q-0.46875 0.53125 -1.140625 0.84375q-0.65625 0.296875 -1.5 0.296875q-0.84375 0 -1.515625 -0.296875q-0.65625 -0.3125 -1.125 -0.84375q-0.46875 -0.546875 -0.71875 -1.28125q-0.25 -0.734375 -0.25 -1.59375l0 -0.15625zm1.359375 0.15625q0 0.59375 0.140625 1.125q0.140625 0.515625 0.421875 0.921875q0.28125 0.40625 0.703125 0.640625q0.421875 0.234375 0.984375 0.234375q0.5625 0 0.984375 -0.234375q0.421875 -0.234375 0.703125 -0.640625q0.28125 -0.40625 0.421875 -0.921875q0.140625 -0.53125 0.140625 -1.125l0 -0.15625q0 -0.578125 -0.15625 -1.109375q-0.140625 -0.53125 -0.421875 -0.9375q-0.28125 -0.40625 -0.703125 -0.640625q-0.421875 -0.234375 -0.984375 -0.234375q-0.5625 0 -0.984375 0.234375q-0.40625 0.234375 -0.6875 0.640625q-0.28125 0.40625 -0.421875 0.9375q-0.140625 0.53125 -0.140625 1.109375l0 0.15625zm13.013916 -4.203125q0.1875 0 0.390625 0.015625q0.203125 0.015625 0.390625 0.046875q0.1875 0.015625 0.34375 0.0625q0.15625 0.03125 0.265625 0.078125l-0.1875 1.3125q-0.390625 -0.078125 -0.75 -0.109375q-0.359375 -0.046875 -0.734375 -0.046875q-0.953125 0 -1.546875 0.4375q-0.59375 0.421875 -0.875 1.203125l0 5.078125l-1.359375 0l0 -7.921875l1.296875 0l0.0625 1.25q0.484375 -0.640625 1.15625 -1.015625q0.6875 -0.390625 1.546875 -0.390625z" fill-rule="nonzero"></path><path fill="#37474f" d="m602.10913 280.25967l0 0c-7.548706 0 -13.668152 -6.1194763 -13.668152 -13.668213l0 0c0 -3.6250305 1.4400024 -7.1015625 4.003296 -9.664856c2.5632935 -2.5632782 6.039856 -4.0033264 9.664856 -4.0033264l0 0c7.548767 0 13.668213 6.1194763 13.668213 13.668182l0 0c0 7.5487366 -6.119446 13.668213 -13.668213 13.668213z" fill-rule="evenodd"></path><path fill="#ffffff" d="m600.7278 280.25977l0 -14.995941l-2.920227 0l4.2957153 -5.753662l4.2957153 5.753662l-2.920227 0l0 14.995941z" fill-rule="evenodd"></path></g></svg>
